G04 #@! TF.GenerationSoftware,KiCad,Pcbnew,(5.1.9)-1*
G04 #@! TF.CreationDate,2024-10-24T21:54:38+09:00*
G04 #@! TF.ProjectId,TK-80_EXT-BOARD,544b2d38-305f-4455-9854-2d424f415244,rev?*
G04 #@! TF.SameCoordinates,PX53920b0PY93c3260*
G04 #@! TF.FileFunction,Legend,Top*
G04 #@! TF.FilePolarity,Positive*
%FSLAX46Y46*%
G04 Gerber Fmt 4.6, Leading zero omitted, Abs format (unit mm)*
G04 Created by KiCad (PCBNEW (5.1.9)-1) date 2024-10-24 21:54:38*
%MOMM*%
%LPD*%
G01*
G04 APERTURE LIST*
%ADD10C,0.150000*%
%ADD11C,0.120000*%
%ADD12C,0.300000*%
G04 APERTURE END LIST*
D10*
X57531904Y1722381D02*
X57579523Y1770000D01*
X57674761Y1817620D01*
X57912857Y1817620D01*
X58008095Y1770000D01*
X58055714Y1722381D01*
X58103333Y1627143D01*
X58103333Y1531905D01*
X58055714Y1389048D01*
X57484285Y817620D01*
X58103333Y817620D01*
X58436666Y1817620D02*
X59103333Y1817620D01*
X58674761Y817620D01*
X59960476Y1817620D02*
X59484285Y1817620D01*
X59436666Y1341429D01*
X59484285Y1389048D01*
X59579523Y1436667D01*
X59817619Y1436667D01*
X59912857Y1389048D01*
X59960476Y1341429D01*
X60008095Y1246191D01*
X60008095Y1008096D01*
X59960476Y912858D01*
X59912857Y865239D01*
X59817619Y817620D01*
X59579523Y817620D01*
X59484285Y865239D01*
X59436666Y912858D01*
X60960476Y817620D02*
X60389047Y817620D01*
X60674761Y817620D02*
X60674761Y1817620D01*
X60579523Y1674762D01*
X60484285Y1579524D01*
X60389047Y1531905D01*
X61341428Y1722381D02*
X61389047Y1770000D01*
X61484285Y1817620D01*
X61722380Y1817620D01*
X61817619Y1770000D01*
X61865238Y1722381D01*
X61912857Y1627143D01*
X61912857Y1531905D01*
X61865238Y1389048D01*
X61293809Y817620D01*
X61912857Y817620D01*
X62389047Y865239D02*
X62389047Y817620D01*
X62341428Y722381D01*
X62293809Y674762D01*
X62770000Y1722381D02*
X62817619Y1770000D01*
X62912857Y1817620D01*
X63150952Y1817620D01*
X63246190Y1770000D01*
X63293809Y1722381D01*
X63341428Y1627143D01*
X63341428Y1531905D01*
X63293809Y1389048D01*
X62722380Y817620D01*
X63341428Y817620D01*
X63674761Y1817620D02*
X64341428Y1817620D01*
X63912857Y817620D01*
X64674761Y1722381D02*
X64722380Y1770000D01*
X64817619Y1817620D01*
X65055714Y1817620D01*
X65150952Y1770000D01*
X65198571Y1722381D01*
X65246190Y1627143D01*
X65246190Y1531905D01*
X65198571Y1389048D01*
X64627142Y817620D01*
X65246190Y817620D01*
X66150952Y1817620D02*
X65674761Y1817620D01*
X65627142Y1341429D01*
X65674761Y1389048D01*
X65770000Y1436667D01*
X66008095Y1436667D01*
X66103333Y1389048D01*
X66150952Y1341429D01*
X66198571Y1246191D01*
X66198571Y1008096D01*
X66150952Y912858D01*
X66103333Y865239D01*
X66008095Y817620D01*
X65770000Y817620D01*
X65674761Y865239D01*
X65627142Y912858D01*
X67055714Y1817620D02*
X66865238Y1817620D01*
X66770000Y1770000D01*
X66722380Y1722381D01*
X66627142Y1579524D01*
X66579523Y1389048D01*
X66579523Y1008096D01*
X66627142Y912858D01*
X66674761Y865239D01*
X66770000Y817620D01*
X66960476Y817620D01*
X67055714Y865239D01*
X67103333Y912858D01*
X67150952Y1008096D01*
X67150952Y1246191D01*
X67103333Y1341429D01*
X67055714Y1389048D01*
X66960476Y1436667D01*
X66770000Y1436667D01*
X66674761Y1389048D01*
X66627142Y1341429D01*
X66579523Y1246191D01*
X68293809Y1865239D02*
X67436666Y579524D01*
X68579523Y1722381D02*
X68627142Y1770000D01*
X68722380Y1817620D01*
X68960476Y1817620D01*
X69055714Y1770000D01*
X69103333Y1722381D01*
X69150952Y1627143D01*
X69150952Y1531905D01*
X69103333Y1389048D01*
X68531904Y817620D01*
X69150952Y817620D01*
X69484285Y1817620D02*
X70150952Y1817620D01*
X69722380Y817620D01*
X70960476Y1817620D02*
X70770000Y1817620D01*
X70674761Y1770000D01*
X70627142Y1722381D01*
X70531904Y1579524D01*
X70484285Y1389048D01*
X70484285Y1008096D01*
X70531904Y912858D01*
X70579523Y865239D01*
X70674761Y817620D01*
X70865238Y817620D01*
X70960476Y865239D01*
X71008095Y912858D01*
X71055714Y1008096D01*
X71055714Y1246191D01*
X71008095Y1341429D01*
X70960476Y1389048D01*
X70865238Y1436667D01*
X70674761Y1436667D01*
X70579523Y1389048D01*
X70531904Y1341429D01*
X70484285Y1246191D01*
X71912857Y1484286D02*
X71912857Y817620D01*
X71674761Y1865239D02*
X71436666Y1150953D01*
X72055714Y1150953D01*
X47815714Y22042381D02*
X47863333Y22090000D01*
X47958571Y22137620D01*
X48196666Y22137620D01*
X48291904Y22090000D01*
X48339523Y22042381D01*
X48387142Y21947143D01*
X48387142Y21851905D01*
X48339523Y21709048D01*
X47768095Y21137620D01*
X48387142Y21137620D01*
X48720476Y22137620D02*
X49387142Y22137620D01*
X48958571Y21137620D01*
X50196666Y22137620D02*
X50006190Y22137620D01*
X49910952Y22090000D01*
X49863333Y22042381D01*
X49768095Y21899524D01*
X49720476Y21709048D01*
X49720476Y21328096D01*
X49768095Y21232858D01*
X49815714Y21185239D01*
X49910952Y21137620D01*
X50101428Y21137620D01*
X50196666Y21185239D01*
X50244285Y21232858D01*
X50291904Y21328096D01*
X50291904Y21566191D01*
X50244285Y21661429D01*
X50196666Y21709048D01*
X50101428Y21756667D01*
X49910952Y21756667D01*
X49815714Y21709048D01*
X49768095Y21661429D01*
X49720476Y21566191D01*
X51149047Y21804286D02*
X51149047Y21137620D01*
X50910952Y22185239D02*
X50672857Y21470953D01*
X51291904Y21470953D01*
X74041904Y1722381D02*
X74089523Y1770000D01*
X74184761Y1817620D01*
X74422857Y1817620D01*
X74518095Y1770000D01*
X74565714Y1722381D01*
X74613333Y1627143D01*
X74613333Y1531905D01*
X74565714Y1389048D01*
X73994285Y817620D01*
X74613333Y817620D01*
X74946666Y1817620D02*
X75613333Y1817620D01*
X75184761Y817620D01*
X76470476Y1817620D02*
X75994285Y1817620D01*
X75946666Y1341429D01*
X75994285Y1389048D01*
X76089523Y1436667D01*
X76327619Y1436667D01*
X76422857Y1389048D01*
X76470476Y1341429D01*
X76518095Y1246191D01*
X76518095Y1008096D01*
X76470476Y912858D01*
X76422857Y865239D01*
X76327619Y817620D01*
X76089523Y817620D01*
X75994285Y865239D01*
X75946666Y912858D01*
X77470476Y817620D02*
X76899047Y817620D01*
X77184761Y817620D02*
X77184761Y1817620D01*
X77089523Y1674762D01*
X76994285Y1579524D01*
X76899047Y1531905D01*
X77851428Y1722381D02*
X77899047Y1770000D01*
X77994285Y1817620D01*
X78232380Y1817620D01*
X78327619Y1770000D01*
X78375238Y1722381D01*
X78422857Y1627143D01*
X78422857Y1531905D01*
X78375238Y1389048D01*
X77803809Y817620D01*
X78422857Y817620D01*
X78899047Y865239D02*
X78899047Y817620D01*
X78851428Y722381D01*
X78803809Y674762D01*
X79280000Y1722381D02*
X79327619Y1770000D01*
X79422857Y1817620D01*
X79660952Y1817620D01*
X79756190Y1770000D01*
X79803809Y1722381D01*
X79851428Y1627143D01*
X79851428Y1531905D01*
X79803809Y1389048D01*
X79232380Y817620D01*
X79851428Y817620D01*
X80184761Y1817620D02*
X80851428Y1817620D01*
X80422857Y817620D01*
X81184761Y1722381D02*
X81232380Y1770000D01*
X81327619Y1817620D01*
X81565714Y1817620D01*
X81660952Y1770000D01*
X81708571Y1722381D01*
X81756190Y1627143D01*
X81756190Y1531905D01*
X81708571Y1389048D01*
X81137142Y817620D01*
X81756190Y817620D01*
X82660952Y1817620D02*
X82184761Y1817620D01*
X82137142Y1341429D01*
X82184761Y1389048D01*
X82280000Y1436667D01*
X82518095Y1436667D01*
X82613333Y1389048D01*
X82660952Y1341429D01*
X82708571Y1246191D01*
X82708571Y1008096D01*
X82660952Y912858D01*
X82613333Y865239D01*
X82518095Y817620D01*
X82280000Y817620D01*
X82184761Y865239D01*
X82137142Y912858D01*
X83565714Y1817620D02*
X83375238Y1817620D01*
X83280000Y1770000D01*
X83232380Y1722381D01*
X83137142Y1579524D01*
X83089523Y1389048D01*
X83089523Y1008096D01*
X83137142Y912858D01*
X83184761Y865239D01*
X83280000Y817620D01*
X83470476Y817620D01*
X83565714Y865239D01*
X83613333Y912858D01*
X83660952Y1008096D01*
X83660952Y1246191D01*
X83613333Y1341429D01*
X83565714Y1389048D01*
X83470476Y1436667D01*
X83280000Y1436667D01*
X83184761Y1389048D01*
X83137142Y1341429D01*
X83089523Y1246191D01*
X84803809Y1865239D02*
X83946666Y579524D01*
X85089523Y1722381D02*
X85137142Y1770000D01*
X85232380Y1817620D01*
X85470476Y1817620D01*
X85565714Y1770000D01*
X85613333Y1722381D01*
X85660952Y1627143D01*
X85660952Y1531905D01*
X85613333Y1389048D01*
X85041904Y817620D01*
X85660952Y817620D01*
X85994285Y1817620D02*
X86660952Y1817620D01*
X86232380Y817620D01*
X86946666Y1817620D02*
X87565714Y1817620D01*
X87232380Y1436667D01*
X87375238Y1436667D01*
X87470476Y1389048D01*
X87518095Y1341429D01*
X87565714Y1246191D01*
X87565714Y1008096D01*
X87518095Y912858D01*
X87470476Y865239D01*
X87375238Y817620D01*
X87089523Y817620D01*
X86994285Y865239D01*
X86946666Y912858D01*
X87946666Y1722381D02*
X87994285Y1770000D01*
X88089523Y1817620D01*
X88327619Y1817620D01*
X88422857Y1770000D01*
X88470476Y1722381D01*
X88518095Y1627143D01*
X88518095Y1531905D01*
X88470476Y1389048D01*
X87899047Y817620D01*
X88518095Y817620D01*
X41021904Y1722381D02*
X41069523Y1770000D01*
X41164761Y1817620D01*
X41402857Y1817620D01*
X41498095Y1770000D01*
X41545714Y1722381D01*
X41593333Y1627143D01*
X41593333Y1531905D01*
X41545714Y1389048D01*
X40974285Y817620D01*
X41593333Y817620D01*
X41926666Y1817620D02*
X42593333Y1817620D01*
X42164761Y817620D01*
X43450476Y1817620D02*
X42974285Y1817620D01*
X42926666Y1341429D01*
X42974285Y1389048D01*
X43069523Y1436667D01*
X43307619Y1436667D01*
X43402857Y1389048D01*
X43450476Y1341429D01*
X43498095Y1246191D01*
X43498095Y1008096D01*
X43450476Y912858D01*
X43402857Y865239D01*
X43307619Y817620D01*
X43069523Y817620D01*
X42974285Y865239D01*
X42926666Y912858D01*
X44450476Y817620D02*
X43879047Y817620D01*
X44164761Y817620D02*
X44164761Y1817620D01*
X44069523Y1674762D01*
X43974285Y1579524D01*
X43879047Y1531905D01*
X44831428Y1722381D02*
X44879047Y1770000D01*
X44974285Y1817620D01*
X45212380Y1817620D01*
X45307619Y1770000D01*
X45355238Y1722381D01*
X45402857Y1627143D01*
X45402857Y1531905D01*
X45355238Y1389048D01*
X44783809Y817620D01*
X45402857Y817620D01*
X46545714Y1865239D02*
X45688571Y579524D01*
X46831428Y1722381D02*
X46879047Y1770000D01*
X46974285Y1817620D01*
X47212380Y1817620D01*
X47307619Y1770000D01*
X47355238Y1722381D01*
X47402857Y1627143D01*
X47402857Y1531905D01*
X47355238Y1389048D01*
X46783809Y817620D01*
X47402857Y817620D01*
X47736190Y1817620D02*
X48402857Y1817620D01*
X47974285Y817620D01*
X48736190Y1722381D02*
X48783809Y1770000D01*
X48879047Y1817620D01*
X49117142Y1817620D01*
X49212380Y1770000D01*
X49260000Y1722381D01*
X49307619Y1627143D01*
X49307619Y1531905D01*
X49260000Y1389048D01*
X48688571Y817620D01*
X49307619Y817620D01*
X50212380Y1817620D02*
X49736190Y1817620D01*
X49688571Y1341429D01*
X49736190Y1389048D01*
X49831428Y1436667D01*
X50069523Y1436667D01*
X50164761Y1389048D01*
X50212380Y1341429D01*
X50260000Y1246191D01*
X50260000Y1008096D01*
X50212380Y912858D01*
X50164761Y865239D01*
X50069523Y817620D01*
X49831428Y817620D01*
X49736190Y865239D01*
X49688571Y912858D01*
X51117142Y1817620D02*
X50926666Y1817620D01*
X50831428Y1770000D01*
X50783809Y1722381D01*
X50688571Y1579524D01*
X50640952Y1389048D01*
X50640952Y1008096D01*
X50688571Y912858D01*
X50736190Y865239D01*
X50831428Y817620D01*
X51021904Y817620D01*
X51117142Y865239D01*
X51164761Y912858D01*
X51212380Y1008096D01*
X51212380Y1246191D01*
X51164761Y1341429D01*
X51117142Y1389048D01*
X51021904Y1436667D01*
X50831428Y1436667D01*
X50736190Y1389048D01*
X50688571Y1341429D01*
X50640952Y1246191D01*
X51688571Y865239D02*
X51688571Y817620D01*
X51640952Y722381D01*
X51593333Y674762D01*
X52069523Y1722381D02*
X52117142Y1770000D01*
X52212380Y1817620D01*
X52450476Y1817620D01*
X52545714Y1770000D01*
X52593333Y1722381D01*
X52640952Y1627143D01*
X52640952Y1531905D01*
X52593333Y1389048D01*
X52021904Y817620D01*
X52640952Y817620D01*
X52974285Y1817620D02*
X53640952Y1817620D01*
X53212380Y817620D01*
X54450476Y1817620D02*
X54260000Y1817620D01*
X54164761Y1770000D01*
X54117142Y1722381D01*
X54021904Y1579524D01*
X53974285Y1389048D01*
X53974285Y1008096D01*
X54021904Y912858D01*
X54069523Y865239D01*
X54164761Y817620D01*
X54355238Y817620D01*
X54450476Y865239D01*
X54498095Y912858D01*
X54545714Y1008096D01*
X54545714Y1246191D01*
X54498095Y1341429D01*
X54450476Y1389048D01*
X54355238Y1436667D01*
X54164761Y1436667D01*
X54069523Y1389048D01*
X54021904Y1341429D01*
X53974285Y1246191D01*
X55402857Y1484286D02*
X55402857Y817620D01*
X55164761Y1865239D02*
X54926666Y1150953D01*
X55545714Y1150953D01*
X47339523Y14422381D02*
X47387142Y14470000D01*
X47482380Y14517620D01*
X47720476Y14517620D01*
X47815714Y14470000D01*
X47863333Y14422381D01*
X47910952Y14327143D01*
X47910952Y14231905D01*
X47863333Y14089048D01*
X47291904Y13517620D01*
X47910952Y13517620D01*
X48244285Y14517620D02*
X48910952Y14517620D01*
X48482380Y13517620D01*
X49768095Y14517620D02*
X49291904Y14517620D01*
X49244285Y14041429D01*
X49291904Y14089048D01*
X49387142Y14136667D01*
X49625238Y14136667D01*
X49720476Y14089048D01*
X49768095Y14041429D01*
X49815714Y13946191D01*
X49815714Y13708096D01*
X49768095Y13612858D01*
X49720476Y13565239D01*
X49625238Y13517620D01*
X49387142Y13517620D01*
X49291904Y13565239D01*
X49244285Y13612858D01*
X50768095Y13517620D02*
X50196666Y13517620D01*
X50482380Y13517620D02*
X50482380Y14517620D01*
X50387142Y14374762D01*
X50291904Y14279524D01*
X50196666Y14231905D01*
X51149047Y14422381D02*
X51196666Y14470000D01*
X51291904Y14517620D01*
X51530000Y14517620D01*
X51625238Y14470000D01*
X51672857Y14422381D01*
X51720476Y14327143D01*
X51720476Y14231905D01*
X51672857Y14089048D01*
X51101428Y13517620D01*
X51720476Y13517620D01*
X47339523Y19502381D02*
X47387142Y19550000D01*
X47482380Y19597620D01*
X47720476Y19597620D01*
X47815714Y19550000D01*
X47863333Y19502381D01*
X47910952Y19407143D01*
X47910952Y19311905D01*
X47863333Y19169048D01*
X47291904Y18597620D01*
X47910952Y18597620D01*
X48244285Y19597620D02*
X48910952Y19597620D01*
X48482380Y18597620D01*
X49244285Y19502381D02*
X49291904Y19550000D01*
X49387142Y19597620D01*
X49625238Y19597620D01*
X49720476Y19550000D01*
X49768095Y19502381D01*
X49815714Y19407143D01*
X49815714Y19311905D01*
X49768095Y19169048D01*
X49196666Y18597620D01*
X49815714Y18597620D01*
X50720476Y19597620D02*
X50244285Y19597620D01*
X50196666Y19121429D01*
X50244285Y19169048D01*
X50339523Y19216667D01*
X50577619Y19216667D01*
X50672857Y19169048D01*
X50720476Y19121429D01*
X50768095Y19026191D01*
X50768095Y18788096D01*
X50720476Y18692858D01*
X50672857Y18645239D01*
X50577619Y18597620D01*
X50339523Y18597620D01*
X50244285Y18645239D01*
X50196666Y18692858D01*
X51625238Y19597620D02*
X51434761Y19597620D01*
X51339523Y19550000D01*
X51291904Y19502381D01*
X51196666Y19359524D01*
X51149047Y19169048D01*
X51149047Y18788096D01*
X51196666Y18692858D01*
X51244285Y18645239D01*
X51339523Y18597620D01*
X51530000Y18597620D01*
X51625238Y18645239D01*
X51672857Y18692858D01*
X51720476Y18788096D01*
X51720476Y19026191D01*
X51672857Y19121429D01*
X51625238Y19169048D01*
X51530000Y19216667D01*
X51339523Y19216667D01*
X51244285Y19169048D01*
X51196666Y19121429D01*
X51149047Y19026191D01*
X65595714Y16962381D02*
X65643333Y17010000D01*
X65738571Y17057620D01*
X65976666Y17057620D01*
X66071904Y17010000D01*
X66119523Y16962381D01*
X66167142Y16867143D01*
X66167142Y16771905D01*
X66119523Y16629048D01*
X65548095Y16057620D01*
X66167142Y16057620D01*
X66500476Y17057620D02*
X67167142Y17057620D01*
X66738571Y16057620D01*
X67452857Y17057620D02*
X68071904Y17057620D01*
X67738571Y16676667D01*
X67881428Y16676667D01*
X67976666Y16629048D01*
X68024285Y16581429D01*
X68071904Y16486191D01*
X68071904Y16248096D01*
X68024285Y16152858D01*
X67976666Y16105239D01*
X67881428Y16057620D01*
X67595714Y16057620D01*
X67500476Y16105239D01*
X67452857Y16152858D01*
X68452857Y16962381D02*
X68500476Y17010000D01*
X68595714Y17057620D01*
X68833809Y17057620D01*
X68929047Y17010000D01*
X68976666Y16962381D01*
X69024285Y16867143D01*
X69024285Y16771905D01*
X68976666Y16629048D01*
X68405238Y16057620D01*
X69024285Y16057620D01*
D11*
X52070000Y17780000D02*
G75*
G02*
X52070000Y15240000I0J-1270000D01*
G01*
X52070000Y10160000D02*
X52070000Y15240000D01*
X52070000Y22860000D02*
X52070000Y17780000D01*
D10*
X30107142Y33567620D02*
X30202380Y33567620D01*
X30297619Y33520000D01*
X30345238Y33472381D01*
X30392857Y33377143D01*
X30440476Y33186667D01*
X30440476Y32948572D01*
X30392857Y32758096D01*
X30345238Y32662858D01*
X30297619Y32615239D01*
X30202380Y32567620D01*
X30107142Y32567620D01*
X30011904Y32615239D01*
X29964285Y32662858D01*
X29916666Y32758096D01*
X29869047Y32948572D01*
X29869047Y33186667D01*
X29916666Y33377143D01*
X29964285Y33472381D01*
X30011904Y33520000D01*
X30107142Y33567620D01*
X30869047Y32662858D02*
X30916666Y32615239D01*
X30869047Y32567620D01*
X30821428Y32615239D01*
X30869047Y32662858D01*
X30869047Y32567620D01*
X31869047Y32567620D02*
X31297619Y32567620D01*
X31583333Y32567620D02*
X31583333Y33567620D01*
X31488095Y33424762D01*
X31392857Y33329524D01*
X31297619Y33281905D01*
X32726190Y33234286D02*
X32726190Y32567620D01*
X32297619Y33234286D02*
X32297619Y32710477D01*
X32345238Y32615239D01*
X32440476Y32567620D01*
X32583333Y32567620D01*
X32678571Y32615239D01*
X32726190Y32662858D01*
X33535714Y33091429D02*
X33202380Y33091429D01*
X33202380Y32567620D02*
X33202380Y33567620D01*
X33678571Y33567620D01*
X2167142Y8167620D02*
X2262380Y8167620D01*
X2357619Y8120000D01*
X2405238Y8072381D01*
X2452857Y7977143D01*
X2500476Y7786667D01*
X2500476Y7548572D01*
X2452857Y7358096D01*
X2405238Y7262858D01*
X2357619Y7215239D01*
X2262380Y7167620D01*
X2167142Y7167620D01*
X2071904Y7215239D01*
X2024285Y7262858D01*
X1976666Y7358096D01*
X1929047Y7548572D01*
X1929047Y7786667D01*
X1976666Y7977143D01*
X2024285Y8072381D01*
X2071904Y8120000D01*
X2167142Y8167620D01*
X2929047Y7262858D02*
X2976666Y7215239D01*
X2929047Y7167620D01*
X2881428Y7215239D01*
X2929047Y7262858D01*
X2929047Y7167620D01*
X3929047Y7167620D02*
X3357619Y7167620D01*
X3643333Y7167620D02*
X3643333Y8167620D01*
X3548095Y8024762D01*
X3452857Y7929524D01*
X3357619Y7881905D01*
X4786190Y7834286D02*
X4786190Y7167620D01*
X4357619Y7834286D02*
X4357619Y7310477D01*
X4405238Y7215239D01*
X4500476Y7167620D01*
X4643333Y7167620D01*
X4738571Y7215239D01*
X4786190Y7262858D01*
X5595714Y7691429D02*
X5262380Y7691429D01*
X5262380Y7167620D02*
X5262380Y8167620D01*
X5738571Y8167620D01*
X28765714Y1817620D02*
X28575238Y1817620D01*
X28480000Y1770000D01*
X28432380Y1722381D01*
X28337142Y1579524D01*
X28289523Y1389048D01*
X28289523Y1008096D01*
X28337142Y912858D01*
X28384761Y865239D01*
X28480000Y817620D01*
X28670476Y817620D01*
X28765714Y865239D01*
X28813333Y912858D01*
X28860952Y1008096D01*
X28860952Y1246191D01*
X28813333Y1341429D01*
X28765714Y1389048D01*
X28670476Y1436667D01*
X28480000Y1436667D01*
X28384761Y1389048D01*
X28337142Y1341429D01*
X28289523Y1246191D01*
X29241904Y1722381D02*
X29289523Y1770000D01*
X29384761Y1817620D01*
X29622857Y1817620D01*
X29718095Y1770000D01*
X29765714Y1722381D01*
X29813333Y1627143D01*
X29813333Y1531905D01*
X29765714Y1389048D01*
X29194285Y817620D01*
X29813333Y817620D01*
X30194285Y1722381D02*
X30241904Y1770000D01*
X30337142Y1817620D01*
X30575238Y1817620D01*
X30670476Y1770000D01*
X30718095Y1722381D01*
X30765714Y1627143D01*
X30765714Y1531905D01*
X30718095Y1389048D01*
X30146666Y817620D01*
X30765714Y817620D01*
X31670476Y1817620D02*
X31194285Y1817620D01*
X31146666Y1341429D01*
X31194285Y1389048D01*
X31289523Y1436667D01*
X31527619Y1436667D01*
X31622857Y1389048D01*
X31670476Y1341429D01*
X31718095Y1246191D01*
X31718095Y1008096D01*
X31670476Y912858D01*
X31622857Y865239D01*
X31527619Y817620D01*
X31289523Y817620D01*
X31194285Y865239D01*
X31146666Y912858D01*
X32575238Y1817620D02*
X32384761Y1817620D01*
X32289523Y1770000D01*
X32241904Y1722381D01*
X32146666Y1579524D01*
X32099047Y1389048D01*
X32099047Y1008096D01*
X32146666Y912858D01*
X32194285Y865239D01*
X32289523Y817620D01*
X32480000Y817620D01*
X32575238Y865239D01*
X32622857Y912858D01*
X32670476Y1008096D01*
X32670476Y1246191D01*
X32622857Y1341429D01*
X32575238Y1389048D01*
X32480000Y1436667D01*
X32289523Y1436667D01*
X32194285Y1389048D01*
X32146666Y1341429D01*
X32099047Y1246191D01*
X51007619Y27122381D02*
X51055238Y27170000D01*
X51150476Y27217620D01*
X51388571Y27217620D01*
X51483809Y27170000D01*
X51531428Y27122381D01*
X51579047Y27027143D01*
X51579047Y26931905D01*
X51531428Y26789048D01*
X50960000Y26217620D01*
X51579047Y26217620D01*
X51912380Y27217620D02*
X52579047Y27217620D01*
X52150476Y26217620D01*
X52864761Y27217620D02*
X53483809Y27217620D01*
X53150476Y26836667D01*
X53293333Y26836667D01*
X53388571Y26789048D01*
X53436190Y26741429D01*
X53483809Y26646191D01*
X53483809Y26408096D01*
X53436190Y26312858D01*
X53388571Y26265239D01*
X53293333Y26217620D01*
X53007619Y26217620D01*
X52912380Y26265239D01*
X52864761Y26312858D01*
X53864761Y27122381D02*
X53912380Y27170000D01*
X54007619Y27217620D01*
X54245714Y27217620D01*
X54340952Y27170000D01*
X54388571Y27122381D01*
X54436190Y27027143D01*
X54436190Y26931905D01*
X54388571Y26789048D01*
X53817142Y26217620D01*
X54436190Y26217620D01*
X55579047Y27265239D02*
X54721904Y25979524D01*
X55864761Y27122381D02*
X55912380Y27170000D01*
X56007619Y27217620D01*
X56245714Y27217620D01*
X56340952Y27170000D01*
X56388571Y27122381D01*
X56436190Y27027143D01*
X56436190Y26931905D01*
X56388571Y26789048D01*
X55817142Y26217620D01*
X56436190Y26217620D01*
X56769523Y27217620D02*
X57436190Y27217620D01*
X57007619Y26217620D01*
X58245714Y27217620D02*
X58055238Y27217620D01*
X57960000Y27170000D01*
X57912380Y27122381D01*
X57817142Y26979524D01*
X57769523Y26789048D01*
X57769523Y26408096D01*
X57817142Y26312858D01*
X57864761Y26265239D01*
X57960000Y26217620D01*
X58150476Y26217620D01*
X58245714Y26265239D01*
X58293333Y26312858D01*
X58340952Y26408096D01*
X58340952Y26646191D01*
X58293333Y26741429D01*
X58245714Y26789048D01*
X58150476Y26836667D01*
X57960000Y26836667D01*
X57864761Y26789048D01*
X57817142Y26741429D01*
X57769523Y26646191D01*
X59198095Y26884286D02*
X59198095Y26217620D01*
X58960000Y27265239D02*
X58721904Y26550953D01*
X59340952Y26550953D01*
X60436190Y27265239D02*
X59579047Y25979524D01*
X60721904Y27122381D02*
X60769523Y27170000D01*
X60864761Y27217620D01*
X61102857Y27217620D01*
X61198095Y27170000D01*
X61245714Y27122381D01*
X61293333Y27027143D01*
X61293333Y26931905D01*
X61245714Y26789048D01*
X60674285Y26217620D01*
X61293333Y26217620D01*
X61626666Y27217620D02*
X62293333Y27217620D01*
X61864761Y26217620D01*
X62626666Y27122381D02*
X62674285Y27170000D01*
X62769523Y27217620D01*
X63007619Y27217620D01*
X63102857Y27170000D01*
X63150476Y27122381D01*
X63198095Y27027143D01*
X63198095Y26931905D01*
X63150476Y26789048D01*
X62579047Y26217620D01*
X63198095Y26217620D01*
X64102857Y27217620D02*
X63626666Y27217620D01*
X63579047Y26741429D01*
X63626666Y26789048D01*
X63721904Y26836667D01*
X63960000Y26836667D01*
X64055238Y26789048D01*
X64102857Y26741429D01*
X64150476Y26646191D01*
X64150476Y26408096D01*
X64102857Y26312858D01*
X64055238Y26265239D01*
X63960000Y26217620D01*
X63721904Y26217620D01*
X63626666Y26265239D01*
X63579047Y26312858D01*
X65007619Y27217620D02*
X64817142Y27217620D01*
X64721904Y27170000D01*
X64674285Y27122381D01*
X64579047Y26979524D01*
X64531428Y26789048D01*
X64531428Y26408096D01*
X64579047Y26312858D01*
X64626666Y26265239D01*
X64721904Y26217620D01*
X64912380Y26217620D01*
X65007619Y26265239D01*
X65055238Y26312858D01*
X65102857Y26408096D01*
X65102857Y26646191D01*
X65055238Y26741429D01*
X65007619Y26789048D01*
X64912380Y26836667D01*
X64721904Y26836667D01*
X64626666Y26789048D01*
X64579047Y26741429D01*
X64531428Y26646191D01*
X66245714Y27265239D02*
X65388571Y25979524D01*
X66531428Y27122381D02*
X66579047Y27170000D01*
X66674285Y27217620D01*
X66912380Y27217620D01*
X67007619Y27170000D01*
X67055238Y27122381D01*
X67102857Y27027143D01*
X67102857Y26931905D01*
X67055238Y26789048D01*
X66483809Y26217620D01*
X67102857Y26217620D01*
X67436190Y27217620D02*
X68102857Y27217620D01*
X67674285Y26217620D01*
X68960000Y27217620D02*
X68483809Y27217620D01*
X68436190Y26741429D01*
X68483809Y26789048D01*
X68579047Y26836667D01*
X68817142Y26836667D01*
X68912380Y26789048D01*
X68960000Y26741429D01*
X69007619Y26646191D01*
X69007619Y26408096D01*
X68960000Y26312858D01*
X68912380Y26265239D01*
X68817142Y26217620D01*
X68579047Y26217620D01*
X68483809Y26265239D01*
X68436190Y26312858D01*
X69960000Y26217620D02*
X69388571Y26217620D01*
X69674285Y26217620D02*
X69674285Y27217620D01*
X69579047Y27074762D01*
X69483809Y26979524D01*
X69388571Y26931905D01*
X70340952Y27122381D02*
X70388571Y27170000D01*
X70483809Y27217620D01*
X70721904Y27217620D01*
X70817142Y27170000D01*
X70864761Y27122381D01*
X70912380Y27027143D01*
X70912380Y26931905D01*
X70864761Y26789048D01*
X70293333Y26217620D01*
X70912380Y26217620D01*
X65675238Y36060000D02*
X65580000Y36107620D01*
X65437142Y36107620D01*
X65294285Y36060000D01*
X65199047Y35964762D01*
X65151428Y35869524D01*
X65103809Y35679048D01*
X65103809Y35536191D01*
X65151428Y35345715D01*
X65199047Y35250477D01*
X65294285Y35155239D01*
X65437142Y35107620D01*
X65532380Y35107620D01*
X65675238Y35155239D01*
X65722857Y35202858D01*
X65722857Y35536191D01*
X65532380Y35536191D01*
X66103809Y35393334D02*
X66580000Y35393334D01*
X66008571Y35107620D02*
X66341904Y36107620D01*
X66675238Y35107620D01*
X67484761Y35107620D02*
X67008571Y35107620D01*
X67008571Y36107620D01*
X67770476Y36012381D02*
X67818095Y36060000D01*
X67913333Y36107620D01*
X68151428Y36107620D01*
X68246666Y36060000D01*
X68294285Y36012381D01*
X68341904Y35917143D01*
X68341904Y35821905D01*
X68294285Y35679048D01*
X67722857Y35107620D01*
X68341904Y35107620D01*
X68722857Y36012381D02*
X68770476Y36060000D01*
X68865714Y36107620D01*
X69103809Y36107620D01*
X69199047Y36060000D01*
X69246666Y36012381D01*
X69294285Y35917143D01*
X69294285Y35821905D01*
X69246666Y35679048D01*
X68675238Y35107620D01*
X69294285Y35107620D01*
X69580000Y36107620D02*
X69913333Y35107620D01*
X70246666Y36107620D01*
X71103809Y35107620D02*
X70532380Y35107620D01*
X70818095Y35107620D02*
X70818095Y36107620D01*
X70722857Y35964762D01*
X70627619Y35869524D01*
X70532380Y35821905D01*
X71722857Y36107620D02*
X71818095Y36107620D01*
X71913333Y36060000D01*
X71960952Y36012381D01*
X72008571Y35917143D01*
X72056190Y35726667D01*
X72056190Y35488572D01*
X72008571Y35298096D01*
X71960952Y35202858D01*
X71913333Y35155239D01*
X71818095Y35107620D01*
X71722857Y35107620D01*
X71627619Y35155239D01*
X71580000Y35202858D01*
X71532380Y35298096D01*
X71484761Y35488572D01*
X71484761Y35726667D01*
X71532380Y35917143D01*
X71580000Y36012381D01*
X71627619Y36060000D01*
X71722857Y36107620D01*
X54356190Y48379048D02*
X54260952Y48426667D01*
X54213333Y48474286D01*
X54165714Y48569524D01*
X54165714Y48617143D01*
X54213333Y48712381D01*
X54260952Y48760000D01*
X54356190Y48807620D01*
X54546666Y48807620D01*
X54641904Y48760000D01*
X54689523Y48712381D01*
X54737142Y48617143D01*
X54737142Y48569524D01*
X54689523Y48474286D01*
X54641904Y48426667D01*
X54546666Y48379048D01*
X54356190Y48379048D01*
X54260952Y48331429D01*
X54213333Y48283810D01*
X54165714Y48188572D01*
X54165714Y47998096D01*
X54213333Y47902858D01*
X54260952Y47855239D01*
X54356190Y47807620D01*
X54546666Y47807620D01*
X54641904Y47855239D01*
X54689523Y47902858D01*
X54737142Y47998096D01*
X54737142Y48188572D01*
X54689523Y48283810D01*
X54641904Y48331429D01*
X54546666Y48379048D01*
X55118095Y48712381D02*
X55165714Y48760000D01*
X55260952Y48807620D01*
X55499047Y48807620D01*
X55594285Y48760000D01*
X55641904Y48712381D01*
X55689523Y48617143D01*
X55689523Y48521905D01*
X55641904Y48379048D01*
X55070476Y47807620D01*
X55689523Y47807620D01*
X56070476Y48712381D02*
X56118095Y48760000D01*
X56213333Y48807620D01*
X56451428Y48807620D01*
X56546666Y48760000D01*
X56594285Y48712381D01*
X56641904Y48617143D01*
X56641904Y48521905D01*
X56594285Y48379048D01*
X56022857Y47807620D01*
X56641904Y47807620D01*
X57213333Y48379048D02*
X57118095Y48426667D01*
X57070476Y48474286D01*
X57022857Y48569524D01*
X57022857Y48617143D01*
X57070476Y48712381D01*
X57118095Y48760000D01*
X57213333Y48807620D01*
X57403809Y48807620D01*
X57499047Y48760000D01*
X57546666Y48712381D01*
X57594285Y48617143D01*
X57594285Y48569524D01*
X57546666Y48474286D01*
X57499047Y48426667D01*
X57403809Y48379048D01*
X57213333Y48379048D01*
X57118095Y48331429D01*
X57070476Y48283810D01*
X57022857Y48188572D01*
X57022857Y47998096D01*
X57070476Y47902858D01*
X57118095Y47855239D01*
X57213333Y47807620D01*
X57403809Y47807620D01*
X57499047Y47855239D01*
X57546666Y47902858D01*
X57594285Y47998096D01*
X57594285Y48188572D01*
X57546666Y48283810D01*
X57499047Y48331429D01*
X57403809Y48379048D01*
X51141904Y73779048D02*
X51046666Y73826667D01*
X50999047Y73874286D01*
X50951428Y73969524D01*
X50951428Y74017143D01*
X50999047Y74112381D01*
X51046666Y74160000D01*
X51141904Y74207620D01*
X51332380Y74207620D01*
X51427619Y74160000D01*
X51475238Y74112381D01*
X51522857Y74017143D01*
X51522857Y73969524D01*
X51475238Y73874286D01*
X51427619Y73826667D01*
X51332380Y73779048D01*
X51141904Y73779048D01*
X51046666Y73731429D01*
X50999047Y73683810D01*
X50951428Y73588572D01*
X50951428Y73398096D01*
X50999047Y73302858D01*
X51046666Y73255239D01*
X51141904Y73207620D01*
X51332380Y73207620D01*
X51427619Y73255239D01*
X51475238Y73302858D01*
X51522857Y73398096D01*
X51522857Y73588572D01*
X51475238Y73683810D01*
X51427619Y73731429D01*
X51332380Y73779048D01*
X51903809Y74112381D02*
X51951428Y74160000D01*
X52046666Y74207620D01*
X52284761Y74207620D01*
X52380000Y74160000D01*
X52427619Y74112381D01*
X52475238Y74017143D01*
X52475238Y73921905D01*
X52427619Y73779048D01*
X51856190Y73207620D01*
X52475238Y73207620D01*
X52856190Y74112381D02*
X52903809Y74160000D01*
X52999047Y74207620D01*
X53237142Y74207620D01*
X53332380Y74160000D01*
X53380000Y74112381D01*
X53427619Y74017143D01*
X53427619Y73921905D01*
X53380000Y73779048D01*
X52808571Y73207620D01*
X53427619Y73207620D01*
X53999047Y73779048D02*
X53903809Y73826667D01*
X53856190Y73874286D01*
X53808571Y73969524D01*
X53808571Y74017143D01*
X53856190Y74112381D01*
X53903809Y74160000D01*
X53999047Y74207620D01*
X54189523Y74207620D01*
X54284761Y74160000D01*
X54332380Y74112381D01*
X54380000Y74017143D01*
X54380000Y73969524D01*
X54332380Y73874286D01*
X54284761Y73826667D01*
X54189523Y73779048D01*
X53999047Y73779048D01*
X53903809Y73731429D01*
X53856190Y73683810D01*
X53808571Y73588572D01*
X53808571Y73398096D01*
X53856190Y73302858D01*
X53903809Y73255239D01*
X53999047Y73207620D01*
X54189523Y73207620D01*
X54284761Y73255239D01*
X54332380Y73302858D01*
X54380000Y73398096D01*
X54380000Y73588572D01*
X54332380Y73683810D01*
X54284761Y73731429D01*
X54189523Y73779048D01*
X55522857Y73255239D02*
X55665714Y73207620D01*
X55903809Y73207620D01*
X55999047Y73255239D01*
X56046666Y73302858D01*
X56094285Y73398096D01*
X56094285Y73493334D01*
X56046666Y73588572D01*
X55999047Y73636191D01*
X55903809Y73683810D01*
X55713333Y73731429D01*
X55618095Y73779048D01*
X55570476Y73826667D01*
X55522857Y73921905D01*
X55522857Y74017143D01*
X55570476Y74112381D01*
X55618095Y74160000D01*
X55713333Y74207620D01*
X55951428Y74207620D01*
X56094285Y74160000D01*
X56713333Y74207620D02*
X56903809Y74207620D01*
X56999047Y74160000D01*
X57094285Y74064762D01*
X57141904Y73874286D01*
X57141904Y73540953D01*
X57094285Y73350477D01*
X56999047Y73255239D01*
X56903809Y73207620D01*
X56713333Y73207620D01*
X56618095Y73255239D01*
X56522857Y73350477D01*
X56475238Y73540953D01*
X56475238Y73874286D01*
X56522857Y74064762D01*
X56618095Y74160000D01*
X56713333Y74207620D01*
X58141904Y73302858D02*
X58094285Y73255239D01*
X57951428Y73207620D01*
X57856190Y73207620D01*
X57713333Y73255239D01*
X57618095Y73350477D01*
X57570476Y73445715D01*
X57522857Y73636191D01*
X57522857Y73779048D01*
X57570476Y73969524D01*
X57618095Y74064762D01*
X57713333Y74160000D01*
X57856190Y74207620D01*
X57951428Y74207620D01*
X58094285Y74160000D01*
X58141904Y74112381D01*
X58570476Y73207620D02*
X58570476Y74207620D01*
X59141904Y73207620D02*
X58713333Y73779048D01*
X59141904Y74207620D02*
X58570476Y73636191D01*
X59570476Y73731429D02*
X59903809Y73731429D01*
X60046666Y73207620D02*
X59570476Y73207620D01*
X59570476Y74207620D01*
X60046666Y74207620D01*
X60332380Y74207620D02*
X60903809Y74207620D01*
X60618095Y73207620D02*
X60618095Y74207620D01*
X23447619Y76319048D02*
X23352380Y76366667D01*
X23304761Y76414286D01*
X23257142Y76509524D01*
X23257142Y76557143D01*
X23304761Y76652381D01*
X23352380Y76700000D01*
X23447619Y76747620D01*
X23638095Y76747620D01*
X23733333Y76700000D01*
X23780952Y76652381D01*
X23828571Y76557143D01*
X23828571Y76509524D01*
X23780952Y76414286D01*
X23733333Y76366667D01*
X23638095Y76319048D01*
X23447619Y76319048D01*
X23352380Y76271429D01*
X23304761Y76223810D01*
X23257142Y76128572D01*
X23257142Y75938096D01*
X23304761Y75842858D01*
X23352380Y75795239D01*
X23447619Y75747620D01*
X23638095Y75747620D01*
X23733333Y75795239D01*
X23780952Y75842858D01*
X23828571Y75938096D01*
X23828571Y76128572D01*
X23780952Y76223810D01*
X23733333Y76271429D01*
X23638095Y76319048D01*
X24447619Y76747620D02*
X24542857Y76747620D01*
X24638095Y76700000D01*
X24685714Y76652381D01*
X24733333Y76557143D01*
X24780952Y76366667D01*
X24780952Y76128572D01*
X24733333Y75938096D01*
X24685714Y75842858D01*
X24638095Y75795239D01*
X24542857Y75747620D01*
X24447619Y75747620D01*
X24352380Y75795239D01*
X24304761Y75842858D01*
X24257142Y75938096D01*
X24209523Y76128572D01*
X24209523Y76366667D01*
X24257142Y76557143D01*
X24304761Y76652381D01*
X24352380Y76700000D01*
X24447619Y76747620D01*
X25352380Y76319048D02*
X25257142Y76366667D01*
X25209523Y76414286D01*
X25161904Y76509524D01*
X25161904Y76557143D01*
X25209523Y76652381D01*
X25257142Y76700000D01*
X25352380Y76747620D01*
X25542857Y76747620D01*
X25638095Y76700000D01*
X25685714Y76652381D01*
X25733333Y76557143D01*
X25733333Y76509524D01*
X25685714Y76414286D01*
X25638095Y76366667D01*
X25542857Y76319048D01*
X25352380Y76319048D01*
X25257142Y76271429D01*
X25209523Y76223810D01*
X25161904Y76128572D01*
X25161904Y75938096D01*
X25209523Y75842858D01*
X25257142Y75795239D01*
X25352380Y75747620D01*
X25542857Y75747620D01*
X25638095Y75795239D01*
X25685714Y75842858D01*
X25733333Y75938096D01*
X25733333Y76128572D01*
X25685714Y76223810D01*
X25638095Y76271429D01*
X25542857Y76319048D01*
X26352380Y76747620D02*
X26447619Y76747620D01*
X26542857Y76700000D01*
X26590476Y76652381D01*
X26638095Y76557143D01*
X26685714Y76366667D01*
X26685714Y76128572D01*
X26638095Y75938096D01*
X26590476Y75842858D01*
X26542857Y75795239D01*
X26447619Y75747620D01*
X26352380Y75747620D01*
X26257142Y75795239D01*
X26209523Y75842858D01*
X26161904Y75938096D01*
X26114285Y76128572D01*
X26114285Y76366667D01*
X26161904Y76557143D01*
X26209523Y76652381D01*
X26257142Y76700000D01*
X26352380Y76747620D01*
X27066666Y76033334D02*
X27542857Y76033334D01*
X26971428Y75747620D02*
X27304761Y76747620D01*
X27638095Y75747620D01*
X2453333Y76319048D02*
X2358095Y76366667D01*
X2310476Y76414286D01*
X2262857Y76509524D01*
X2262857Y76557143D01*
X2310476Y76652381D01*
X2358095Y76700000D01*
X2453333Y76747620D01*
X2643809Y76747620D01*
X2739047Y76700000D01*
X2786666Y76652381D01*
X2834285Y76557143D01*
X2834285Y76509524D01*
X2786666Y76414286D01*
X2739047Y76366667D01*
X2643809Y76319048D01*
X2453333Y76319048D01*
X2358095Y76271429D01*
X2310476Y76223810D01*
X2262857Y76128572D01*
X2262857Y75938096D01*
X2310476Y75842858D01*
X2358095Y75795239D01*
X2453333Y75747620D01*
X2643809Y75747620D01*
X2739047Y75795239D01*
X2786666Y75842858D01*
X2834285Y75938096D01*
X2834285Y76128572D01*
X2786666Y76223810D01*
X2739047Y76271429D01*
X2643809Y76319048D01*
X3453333Y76747620D02*
X3548571Y76747620D01*
X3643809Y76700000D01*
X3691428Y76652381D01*
X3739047Y76557143D01*
X3786666Y76366667D01*
X3786666Y76128572D01*
X3739047Y75938096D01*
X3691428Y75842858D01*
X3643809Y75795239D01*
X3548571Y75747620D01*
X3453333Y75747620D01*
X3358095Y75795239D01*
X3310476Y75842858D01*
X3262857Y75938096D01*
X3215238Y76128572D01*
X3215238Y76366667D01*
X3262857Y76557143D01*
X3310476Y76652381D01*
X3358095Y76700000D01*
X3453333Y76747620D01*
X4358095Y76319048D02*
X4262857Y76366667D01*
X4215238Y76414286D01*
X4167619Y76509524D01*
X4167619Y76557143D01*
X4215238Y76652381D01*
X4262857Y76700000D01*
X4358095Y76747620D01*
X4548571Y76747620D01*
X4643809Y76700000D01*
X4691428Y76652381D01*
X4739047Y76557143D01*
X4739047Y76509524D01*
X4691428Y76414286D01*
X4643809Y76366667D01*
X4548571Y76319048D01*
X4358095Y76319048D01*
X4262857Y76271429D01*
X4215238Y76223810D01*
X4167619Y76128572D01*
X4167619Y75938096D01*
X4215238Y75842858D01*
X4262857Y75795239D01*
X4358095Y75747620D01*
X4548571Y75747620D01*
X4643809Y75795239D01*
X4691428Y75842858D01*
X4739047Y75938096D01*
X4739047Y76128572D01*
X4691428Y76223810D01*
X4643809Y76271429D01*
X4548571Y76319048D01*
X5358095Y76747620D02*
X5453333Y76747620D01*
X5548571Y76700000D01*
X5596190Y76652381D01*
X5643809Y76557143D01*
X5691428Y76366667D01*
X5691428Y76128572D01*
X5643809Y75938096D01*
X5596190Y75842858D01*
X5548571Y75795239D01*
X5453333Y75747620D01*
X5358095Y75747620D01*
X5262857Y75795239D01*
X5215238Y75842858D01*
X5167619Y75938096D01*
X5120000Y76128572D01*
X5120000Y76366667D01*
X5167619Y76557143D01*
X5215238Y76652381D01*
X5262857Y76700000D01*
X5358095Y76747620D01*
X6072380Y76033334D02*
X6548571Y76033334D01*
X5977142Y75747620D02*
X6310476Y76747620D01*
X6643809Y75747620D01*
X7691428Y75795239D02*
X7834285Y75747620D01*
X8072380Y75747620D01*
X8167619Y75795239D01*
X8215238Y75842858D01*
X8262857Y75938096D01*
X8262857Y76033334D01*
X8215238Y76128572D01*
X8167619Y76176191D01*
X8072380Y76223810D01*
X7881904Y76271429D01*
X7786666Y76319048D01*
X7739047Y76366667D01*
X7691428Y76461905D01*
X7691428Y76557143D01*
X7739047Y76652381D01*
X7786666Y76700000D01*
X7881904Y76747620D01*
X8120000Y76747620D01*
X8262857Y76700000D01*
X8881904Y76747620D02*
X9072380Y76747620D01*
X9167619Y76700000D01*
X9262857Y76604762D01*
X9310476Y76414286D01*
X9310476Y76080953D01*
X9262857Y75890477D01*
X9167619Y75795239D01*
X9072380Y75747620D01*
X8881904Y75747620D01*
X8786666Y75795239D01*
X8691428Y75890477D01*
X8643809Y76080953D01*
X8643809Y76414286D01*
X8691428Y76604762D01*
X8786666Y76700000D01*
X8881904Y76747620D01*
X10310476Y75842858D02*
X10262857Y75795239D01*
X10120000Y75747620D01*
X10024761Y75747620D01*
X9881904Y75795239D01*
X9786666Y75890477D01*
X9739047Y75985715D01*
X9691428Y76176191D01*
X9691428Y76319048D01*
X9739047Y76509524D01*
X9786666Y76604762D01*
X9881904Y76700000D01*
X10024761Y76747620D01*
X10120000Y76747620D01*
X10262857Y76700000D01*
X10310476Y76652381D01*
X10739047Y75747620D02*
X10739047Y76747620D01*
X11310476Y75747620D02*
X10881904Y76319048D01*
X11310476Y76747620D02*
X10739047Y76176191D01*
X11739047Y76271429D02*
X12072380Y76271429D01*
X12215238Y75747620D02*
X11739047Y75747620D01*
X11739047Y76747620D01*
X12215238Y76747620D01*
X12500952Y76747620D02*
X13072380Y76747620D01*
X12786666Y75747620D02*
X12786666Y76747620D01*
X122920952Y41457620D02*
X122920952Y42457620D01*
X123254285Y41743334D01*
X123587619Y42457620D01*
X123587619Y41457620D01*
X124063809Y41457620D02*
X124063809Y42124286D01*
X124063809Y42457620D02*
X124016190Y42410000D01*
X124063809Y42362381D01*
X124111428Y42410000D01*
X124063809Y42457620D01*
X124063809Y42362381D01*
X124968571Y41505239D02*
X124873333Y41457620D01*
X124682857Y41457620D01*
X124587619Y41505239D01*
X124540000Y41552858D01*
X124492380Y41648096D01*
X124492380Y41933810D01*
X124540000Y42029048D01*
X124587619Y42076667D01*
X124682857Y42124286D01*
X124873333Y42124286D01*
X124968571Y42076667D01*
X125397142Y41457620D02*
X125397142Y42124286D01*
X125397142Y41933810D02*
X125444761Y42029048D01*
X125492380Y42076667D01*
X125587619Y42124286D01*
X125682857Y42124286D01*
X126159047Y41457620D02*
X126063809Y41505239D01*
X126016190Y41552858D01*
X125968571Y41648096D01*
X125968571Y41933810D01*
X126016190Y42029048D01*
X126063809Y42076667D01*
X126159047Y42124286D01*
X126301904Y42124286D01*
X126397142Y42076667D01*
X126444761Y42029048D01*
X126492380Y41933810D01*
X126492380Y41648096D01*
X126444761Y41552858D01*
X126397142Y41505239D01*
X126301904Y41457620D01*
X126159047Y41457620D01*
X126682857Y41362381D02*
X127444761Y41362381D01*
X127635238Y41505239D02*
X127778095Y41457620D01*
X128016190Y41457620D01*
X128111428Y41505239D01*
X128159047Y41552858D01*
X128206666Y41648096D01*
X128206666Y41743334D01*
X128159047Y41838572D01*
X128111428Y41886191D01*
X128016190Y41933810D01*
X127825714Y41981429D01*
X127730476Y42029048D01*
X127682857Y42076667D01*
X127635238Y42171905D01*
X127635238Y42267143D01*
X127682857Y42362381D01*
X127730476Y42410000D01*
X127825714Y42457620D01*
X128063809Y42457620D01*
X128206666Y42410000D01*
X128635238Y41457620D02*
X128635238Y42457620D01*
X128873333Y42457620D01*
X129016190Y42410000D01*
X129111428Y42314762D01*
X129159047Y42219524D01*
X129206666Y42029048D01*
X129206666Y41886191D01*
X129159047Y41695715D01*
X129111428Y41600477D01*
X129016190Y41505239D01*
X128873333Y41457620D01*
X128635238Y41457620D01*
X129397142Y41362381D02*
X130159047Y41362381D01*
X130968571Y41552858D02*
X130920952Y41505239D01*
X130778095Y41457620D01*
X130682857Y41457620D01*
X130540000Y41505239D01*
X130444761Y41600477D01*
X130397142Y41695715D01*
X130349523Y41886191D01*
X130349523Y42029048D01*
X130397142Y42219524D01*
X130444761Y42314762D01*
X130540000Y42410000D01*
X130682857Y42457620D01*
X130778095Y42457620D01*
X130920952Y42410000D01*
X130968571Y42362381D01*
X131825714Y41457620D02*
X131825714Y41981429D01*
X131778095Y42076667D01*
X131682857Y42124286D01*
X131492380Y42124286D01*
X131397142Y42076667D01*
X131825714Y41505239D02*
X131730476Y41457620D01*
X131492380Y41457620D01*
X131397142Y41505239D01*
X131349523Y41600477D01*
X131349523Y41695715D01*
X131397142Y41790953D01*
X131492380Y41838572D01*
X131730476Y41838572D01*
X131825714Y41886191D01*
X132301904Y41457620D02*
X132301904Y42124286D01*
X132301904Y41933810D02*
X132349523Y42029048D01*
X132397142Y42076667D01*
X132492380Y42124286D01*
X132587619Y42124286D01*
X133349523Y41457620D02*
X133349523Y42457620D01*
X133349523Y41505239D02*
X133254285Y41457620D01*
X133063809Y41457620D01*
X132968571Y41505239D01*
X132920952Y41552858D01*
X132873333Y41648096D01*
X132873333Y41933810D01*
X132920952Y42029048D01*
X132968571Y42076667D01*
X133063809Y42124286D01*
X133254285Y42124286D01*
X133349523Y42076667D01*
X133587619Y41362381D02*
X134349523Y41362381D01*
X134587619Y41457620D02*
X134587619Y42457620D01*
X135159047Y41457620D02*
X134730476Y42029048D01*
X135159047Y42457620D02*
X134587619Y41886191D01*
X135587619Y41457620D02*
X135587619Y42124286D01*
X135587619Y42457620D02*
X135540000Y42410000D01*
X135587619Y42362381D01*
X135635238Y42410000D01*
X135587619Y42457620D01*
X135587619Y42362381D01*
X135920952Y42124286D02*
X136301904Y42124286D01*
X136063809Y42457620D02*
X136063809Y41600477D01*
X136111428Y41505239D01*
X136206666Y41457620D01*
X136301904Y41457620D01*
X92845714Y41743334D02*
X93321904Y41743334D01*
X92750476Y41457620D02*
X93083809Y42457620D01*
X93417142Y41457620D01*
X93750476Y41457620D02*
X93750476Y42124286D01*
X93750476Y41933810D02*
X93798095Y42029048D01*
X93845714Y42076667D01*
X93940952Y42124286D01*
X94036190Y42124286D01*
X94798095Y41457620D02*
X94798095Y42457620D01*
X94798095Y41505239D02*
X94702857Y41457620D01*
X94512380Y41457620D01*
X94417142Y41505239D01*
X94369523Y41552858D01*
X94321904Y41648096D01*
X94321904Y41933810D01*
X94369523Y42029048D01*
X94417142Y42076667D01*
X94512380Y42124286D01*
X94702857Y42124286D01*
X94798095Y42076667D01*
X95702857Y42124286D02*
X95702857Y41457620D01*
X95274285Y42124286D02*
X95274285Y41600477D01*
X95321904Y41505239D01*
X95417142Y41457620D01*
X95560000Y41457620D01*
X95655238Y41505239D01*
X95702857Y41552858D01*
X96179047Y41457620D02*
X96179047Y42124286D01*
X96179047Y42457620D02*
X96131428Y42410000D01*
X96179047Y42362381D01*
X96226666Y42410000D01*
X96179047Y42457620D01*
X96179047Y42362381D01*
X96655238Y42124286D02*
X96655238Y41457620D01*
X96655238Y42029048D02*
X96702857Y42076667D01*
X96798095Y42124286D01*
X96940952Y42124286D01*
X97036190Y42076667D01*
X97083809Y41981429D01*
X97083809Y41457620D01*
X97702857Y41457620D02*
X97607619Y41505239D01*
X97560000Y41552858D01*
X97512380Y41648096D01*
X97512380Y41933810D01*
X97560000Y42029048D01*
X97607619Y42076667D01*
X97702857Y42124286D01*
X97845714Y42124286D01*
X97940952Y42076667D01*
X97988571Y42029048D01*
X98036190Y41933810D01*
X98036190Y41648096D01*
X97988571Y41552858D01*
X97940952Y41505239D01*
X97845714Y41457620D01*
X97702857Y41457620D01*
X99226666Y41457620D02*
X99226666Y42457620D01*
X99607619Y42457620D01*
X99702857Y42410000D01*
X99750476Y42362381D01*
X99798095Y42267143D01*
X99798095Y42124286D01*
X99750476Y42029048D01*
X99702857Y41981429D01*
X99607619Y41933810D01*
X99226666Y41933810D01*
X100226666Y41457620D02*
X100226666Y42124286D01*
X100226666Y41933810D02*
X100274285Y42029048D01*
X100321904Y42076667D01*
X100417142Y42124286D01*
X100512380Y42124286D01*
X100988571Y41457620D02*
X100893333Y41505239D01*
X100845714Y41552858D01*
X100798095Y41648096D01*
X100798095Y41933810D01*
X100845714Y42029048D01*
X100893333Y42076667D01*
X100988571Y42124286D01*
X101131428Y42124286D01*
X101226666Y42076667D01*
X101274285Y42029048D01*
X101321904Y41933810D01*
X101321904Y41648096D01*
X101274285Y41552858D01*
X101226666Y41505239D01*
X101131428Y41457620D01*
X100988571Y41457620D01*
X102512380Y41457620D02*
X102512380Y42124286D01*
X102512380Y42029048D02*
X102560000Y42076667D01*
X102655238Y42124286D01*
X102798095Y42124286D01*
X102893333Y42076667D01*
X102940952Y41981429D01*
X102940952Y41457620D01*
X102940952Y41981429D02*
X102988571Y42076667D01*
X103083809Y42124286D01*
X103226666Y42124286D01*
X103321904Y42076667D01*
X103369523Y41981429D01*
X103369523Y41457620D01*
X103845714Y41457620D02*
X103845714Y42124286D01*
X103845714Y42457620D02*
X103798095Y42410000D01*
X103845714Y42362381D01*
X103893333Y42410000D01*
X103845714Y42457620D01*
X103845714Y42362381D01*
X104321904Y42124286D02*
X104321904Y41457620D01*
X104321904Y42029048D02*
X104369523Y42076667D01*
X104464761Y42124286D01*
X104607619Y42124286D01*
X104702857Y42076667D01*
X104750476Y41981429D01*
X104750476Y41457620D01*
X105226666Y41457620D02*
X105226666Y42124286D01*
X105226666Y42457620D02*
X105179047Y42410000D01*
X105226666Y42362381D01*
X105274285Y42410000D01*
X105226666Y42457620D01*
X105226666Y42362381D01*
X107696190Y48379048D02*
X107600952Y48426667D01*
X107553333Y48474286D01*
X107505714Y48569524D01*
X107505714Y48617143D01*
X107553333Y48712381D01*
X107600952Y48760000D01*
X107696190Y48807620D01*
X107886666Y48807620D01*
X107981904Y48760000D01*
X108029523Y48712381D01*
X108077142Y48617143D01*
X108077142Y48569524D01*
X108029523Y48474286D01*
X107981904Y48426667D01*
X107886666Y48379048D01*
X107696190Y48379048D01*
X107600952Y48331429D01*
X107553333Y48283810D01*
X107505714Y48188572D01*
X107505714Y47998096D01*
X107553333Y47902858D01*
X107600952Y47855239D01*
X107696190Y47807620D01*
X107886666Y47807620D01*
X107981904Y47855239D01*
X108029523Y47902858D01*
X108077142Y47998096D01*
X108077142Y48188572D01*
X108029523Y48283810D01*
X107981904Y48331429D01*
X107886666Y48379048D01*
X108458095Y48712381D02*
X108505714Y48760000D01*
X108600952Y48807620D01*
X108839047Y48807620D01*
X108934285Y48760000D01*
X108981904Y48712381D01*
X109029523Y48617143D01*
X109029523Y48521905D01*
X108981904Y48379048D01*
X108410476Y47807620D01*
X109029523Y47807620D01*
X109934285Y48807620D02*
X109458095Y48807620D01*
X109410476Y48331429D01*
X109458095Y48379048D01*
X109553333Y48426667D01*
X109791428Y48426667D01*
X109886666Y48379048D01*
X109934285Y48331429D01*
X109981904Y48236191D01*
X109981904Y47998096D01*
X109934285Y47902858D01*
X109886666Y47855239D01*
X109791428Y47807620D01*
X109553333Y47807620D01*
X109458095Y47855239D01*
X109410476Y47902858D01*
X110886666Y48807620D02*
X110410476Y48807620D01*
X110362857Y48331429D01*
X110410476Y48379048D01*
X110505714Y48426667D01*
X110743809Y48426667D01*
X110839047Y48379048D01*
X110886666Y48331429D01*
X110934285Y48236191D01*
X110934285Y47998096D01*
X110886666Y47902858D01*
X110839047Y47855239D01*
X110743809Y47807620D01*
X110505714Y47807620D01*
X110410476Y47855239D01*
X110362857Y47902858D01*
X82169047Y34218572D02*
X82930952Y34218572D01*
X79629047Y34218572D02*
X80390952Y34218572D01*
X80010000Y33837620D02*
X80010000Y34599524D01*
X78160952Y28805239D02*
X78303809Y28757620D01*
X78541904Y28757620D01*
X78637142Y28805239D01*
X78684761Y28852858D01*
X78732380Y28948096D01*
X78732380Y29043334D01*
X78684761Y29138572D01*
X78637142Y29186191D01*
X78541904Y29233810D01*
X78351428Y29281429D01*
X78256190Y29329048D01*
X78208571Y29376667D01*
X78160952Y29471905D01*
X78160952Y29567143D01*
X78208571Y29662381D01*
X78256190Y29710000D01*
X78351428Y29757620D01*
X78589523Y29757620D01*
X78732380Y29710000D01*
X79160952Y28757620D02*
X79160952Y29757620D01*
X79541904Y29757620D01*
X79637142Y29710000D01*
X79684761Y29662381D01*
X79732380Y29567143D01*
X79732380Y29424286D01*
X79684761Y29329048D01*
X79637142Y29281429D01*
X79541904Y29233810D01*
X79160952Y29233810D01*
X80160952Y29281429D02*
X80494285Y29281429D01*
X80637142Y28757620D02*
X80160952Y28757620D01*
X80160952Y29757620D01*
X80637142Y29757620D01*
X81018095Y29043334D02*
X81494285Y29043334D01*
X80922857Y28757620D02*
X81256190Y29757620D01*
X81589523Y28757620D01*
X81922857Y28757620D02*
X81922857Y29757620D01*
X82494285Y28757620D02*
X82065714Y29329048D01*
X82494285Y29757620D02*
X81922857Y29186191D01*
X82922857Y29281429D02*
X83256190Y29281429D01*
X83399047Y28757620D02*
X82922857Y28757620D01*
X82922857Y29757620D01*
X83399047Y29757620D01*
X84399047Y28757620D02*
X84065714Y29233810D01*
X83827619Y28757620D02*
X83827619Y29757620D01*
X84208571Y29757620D01*
X84303809Y29710000D01*
X84351428Y29662381D01*
X84399047Y29567143D01*
X84399047Y29424286D01*
X84351428Y29329048D01*
X84303809Y29281429D01*
X84208571Y29233810D01*
X83827619Y29233810D01*
X109561904Y75049048D02*
X109466666Y75096667D01*
X109419047Y75144286D01*
X109371428Y75239524D01*
X109371428Y75287143D01*
X109419047Y75382381D01*
X109466666Y75430000D01*
X109561904Y75477620D01*
X109752380Y75477620D01*
X109847619Y75430000D01*
X109895238Y75382381D01*
X109942857Y75287143D01*
X109942857Y75239524D01*
X109895238Y75144286D01*
X109847619Y75096667D01*
X109752380Y75049048D01*
X109561904Y75049048D01*
X109466666Y75001429D01*
X109419047Y74953810D01*
X109371428Y74858572D01*
X109371428Y74668096D01*
X109419047Y74572858D01*
X109466666Y74525239D01*
X109561904Y74477620D01*
X109752380Y74477620D01*
X109847619Y74525239D01*
X109895238Y74572858D01*
X109942857Y74668096D01*
X109942857Y74858572D01*
X109895238Y74953810D01*
X109847619Y75001429D01*
X109752380Y75049048D01*
X110323809Y75382381D02*
X110371428Y75430000D01*
X110466666Y75477620D01*
X110704761Y75477620D01*
X110800000Y75430000D01*
X110847619Y75382381D01*
X110895238Y75287143D01*
X110895238Y75191905D01*
X110847619Y75049048D01*
X110276190Y74477620D01*
X110895238Y74477620D01*
X111800000Y75477620D02*
X111323809Y75477620D01*
X111276190Y75001429D01*
X111323809Y75049048D01*
X111419047Y75096667D01*
X111657142Y75096667D01*
X111752380Y75049048D01*
X111800000Y75001429D01*
X111847619Y74906191D01*
X111847619Y74668096D01*
X111800000Y74572858D01*
X111752380Y74525239D01*
X111657142Y74477620D01*
X111419047Y74477620D01*
X111323809Y74525239D01*
X111276190Y74572858D01*
X112752380Y75477620D02*
X112276190Y75477620D01*
X112228571Y75001429D01*
X112276190Y75049048D01*
X112371428Y75096667D01*
X112609523Y75096667D01*
X112704761Y75049048D01*
X112752380Y75001429D01*
X112800000Y74906191D01*
X112800000Y74668096D01*
X112752380Y74572858D01*
X112704761Y74525239D01*
X112609523Y74477620D01*
X112371428Y74477620D01*
X112276190Y74525239D01*
X112228571Y74572858D01*
X113942857Y74525239D02*
X114085714Y74477620D01*
X114323809Y74477620D01*
X114419047Y74525239D01*
X114466666Y74572858D01*
X114514285Y74668096D01*
X114514285Y74763334D01*
X114466666Y74858572D01*
X114419047Y74906191D01*
X114323809Y74953810D01*
X114133333Y75001429D01*
X114038095Y75049048D01*
X113990476Y75096667D01*
X113942857Y75191905D01*
X113942857Y75287143D01*
X113990476Y75382381D01*
X114038095Y75430000D01*
X114133333Y75477620D01*
X114371428Y75477620D01*
X114514285Y75430000D01*
X115133333Y75477620D02*
X115323809Y75477620D01*
X115419047Y75430000D01*
X115514285Y75334762D01*
X115561904Y75144286D01*
X115561904Y74810953D01*
X115514285Y74620477D01*
X115419047Y74525239D01*
X115323809Y74477620D01*
X115133333Y74477620D01*
X115038095Y74525239D01*
X114942857Y74620477D01*
X114895238Y74810953D01*
X114895238Y75144286D01*
X114942857Y75334762D01*
X115038095Y75430000D01*
X115133333Y75477620D01*
X116561904Y74572858D02*
X116514285Y74525239D01*
X116371428Y74477620D01*
X116276190Y74477620D01*
X116133333Y74525239D01*
X116038095Y74620477D01*
X115990476Y74715715D01*
X115942857Y74906191D01*
X115942857Y75049048D01*
X115990476Y75239524D01*
X116038095Y75334762D01*
X116133333Y75430000D01*
X116276190Y75477620D01*
X116371428Y75477620D01*
X116514285Y75430000D01*
X116561904Y75382381D01*
X116990476Y74477620D02*
X116990476Y75477620D01*
X117561904Y74477620D02*
X117133333Y75049048D01*
X117561904Y75477620D02*
X116990476Y74906191D01*
X117990476Y75001429D02*
X118323809Y75001429D01*
X118466666Y74477620D02*
X117990476Y74477620D01*
X117990476Y75477620D01*
X118466666Y75477620D01*
X118752380Y75477620D02*
X119323809Y75477620D01*
X119038095Y74477620D02*
X119038095Y75477620D01*
D12*
X46642857Y77369048D02*
X47785714Y77369048D01*
X47214285Y74869048D02*
X47214285Y77369048D01*
X48452380Y74869048D02*
X48452380Y77369048D01*
X49595238Y74869048D02*
X48738095Y76297620D01*
X49595238Y77369048D02*
X48452380Y75940477D01*
X50452380Y75821429D02*
X51976190Y75821429D01*
X53214285Y76297620D02*
X53023809Y76416667D01*
X52928571Y76535715D01*
X52833333Y76773810D01*
X52833333Y76892858D01*
X52928571Y77130953D01*
X53023809Y77250000D01*
X53214285Y77369048D01*
X53595238Y77369048D01*
X53785714Y77250000D01*
X53880952Y77130953D01*
X53976190Y76892858D01*
X53976190Y76773810D01*
X53880952Y76535715D01*
X53785714Y76416667D01*
X53595238Y76297620D01*
X53214285Y76297620D01*
X53023809Y76178572D01*
X52928571Y76059524D01*
X52833333Y75821429D01*
X52833333Y75345239D01*
X52928571Y75107143D01*
X53023809Y74988096D01*
X53214285Y74869048D01*
X53595238Y74869048D01*
X53785714Y74988096D01*
X53880952Y75107143D01*
X53976190Y75345239D01*
X53976190Y75821429D01*
X53880952Y76059524D01*
X53785714Y76178572D01*
X53595238Y76297620D01*
X55214285Y77369048D02*
X55404761Y77369048D01*
X55595238Y77250000D01*
X55690476Y77130953D01*
X55785714Y76892858D01*
X55880952Y76416667D01*
X55880952Y75821429D01*
X55785714Y75345239D01*
X55690476Y75107143D01*
X55595238Y74988096D01*
X55404761Y74869048D01*
X55214285Y74869048D01*
X55023809Y74988096D01*
X54928571Y75107143D01*
X54833333Y75345239D01*
X54738095Y75821429D01*
X54738095Y76416667D01*
X54833333Y76892858D01*
X54928571Y77130953D01*
X55023809Y77250000D01*
X55214285Y77369048D01*
X57404761Y76178572D02*
X57690476Y76059524D01*
X57785714Y75940477D01*
X57880952Y75702381D01*
X57880952Y75345239D01*
X57785714Y75107143D01*
X57690476Y74988096D01*
X57500000Y74869048D01*
X56738095Y74869048D01*
X56738095Y77369048D01*
X57404761Y77369048D01*
X57595238Y77250000D01*
X57690476Y77130953D01*
X57785714Y76892858D01*
X57785714Y76654762D01*
X57690476Y76416667D01*
X57595238Y76297620D01*
X57404761Y76178572D01*
X56738095Y76178572D01*
X58642857Y74988096D02*
X58928571Y74869048D01*
X59404761Y74869048D01*
X59595238Y74988096D01*
X59690476Y75107143D01*
X59785714Y75345239D01*
X59785714Y75583334D01*
X59690476Y75821429D01*
X59595238Y75940477D01*
X59404761Y76059524D01*
X59023809Y76178572D01*
X58833333Y76297620D01*
X58738095Y76416667D01*
X58642857Y76654762D01*
X58642857Y76892858D01*
X58738095Y77130953D01*
X58833333Y77250000D01*
X59023809Y77369048D01*
X59500000Y77369048D01*
X59785714Y77250000D01*
X60166666Y74630953D02*
X61690476Y74630953D01*
X62071428Y74988096D02*
X62357142Y74869048D01*
X62833333Y74869048D01*
X63023809Y74988096D01*
X63119047Y75107143D01*
X63214285Y75345239D01*
X63214285Y75583334D01*
X63119047Y75821429D01*
X63023809Y75940477D01*
X62833333Y76059524D01*
X62452380Y76178572D01*
X62261904Y76297620D01*
X62166666Y76416667D01*
X62071428Y76654762D01*
X62071428Y76892858D01*
X62166666Y77130953D01*
X62261904Y77250000D01*
X62452380Y77369048D01*
X62928571Y77369048D01*
X63214285Y77250000D01*
X64071428Y74869048D02*
X64071428Y77369048D01*
X64547619Y77369048D01*
X64833333Y77250000D01*
X65023809Y77011905D01*
X65119047Y76773810D01*
X65214285Y76297620D01*
X65214285Y75940477D01*
X65119047Y75464286D01*
X65023809Y75226191D01*
X64833333Y74988096D01*
X64547619Y74869048D01*
X64071428Y74869048D01*
X66642857Y73916667D02*
X66547619Y74035715D01*
X66357142Y74392858D01*
X66261904Y74630953D01*
X66166666Y74988096D01*
X66071428Y75583334D01*
X66071428Y76059524D01*
X66166666Y76654762D01*
X66261904Y77011905D01*
X66357142Y77250000D01*
X66547619Y77607143D01*
X66642857Y77726191D01*
X67119047Y77369048D02*
X68261904Y77369048D01*
X67690476Y74869048D02*
X67690476Y77369048D01*
X68928571Y74869048D02*
X68928571Y77369048D01*
X70071428Y74869048D02*
X69214285Y76297620D01*
X70071428Y77369048D02*
X68928571Y75940477D01*
X70928571Y75821429D02*
X72452380Y75821429D01*
X73690476Y76297620D02*
X73500000Y76416667D01*
X73404761Y76535715D01*
X73309523Y76773810D01*
X73309523Y76892858D01*
X73404761Y77130953D01*
X73500000Y77250000D01*
X73690476Y77369048D01*
X74071428Y77369048D01*
X74261904Y77250000D01*
X74357142Y77130953D01*
X74452380Y76892858D01*
X74452380Y76773810D01*
X74357142Y76535715D01*
X74261904Y76416667D01*
X74071428Y76297620D01*
X73690476Y76297620D01*
X73500000Y76178572D01*
X73404761Y76059524D01*
X73309523Y75821429D01*
X73309523Y75345239D01*
X73404761Y75107143D01*
X73500000Y74988096D01*
X73690476Y74869048D01*
X74071428Y74869048D01*
X74261904Y74988096D01*
X74357142Y75107143D01*
X74452380Y75345239D01*
X74452380Y75821429D01*
X74357142Y76059524D01*
X74261904Y76178572D01*
X74071428Y76297620D01*
X75690476Y77369048D02*
X75880952Y77369048D01*
X76071428Y77250000D01*
X76166666Y77130953D01*
X76261904Y76892858D01*
X76357142Y76416667D01*
X76357142Y75821429D01*
X76261904Y75345239D01*
X76166666Y75107143D01*
X76071428Y74988096D01*
X75880952Y74869048D01*
X75690476Y74869048D01*
X75500000Y74988096D01*
X75404761Y75107143D01*
X75309523Y75345239D01*
X75214285Y75821429D01*
X75214285Y76416667D01*
X75309523Y76892858D01*
X75404761Y77130953D01*
X75500000Y77250000D01*
X75690476Y77369048D01*
X76738095Y74630953D02*
X78261904Y74630953D01*
X78642857Y74988096D02*
X78928571Y74869048D01*
X79404761Y74869048D01*
X79595238Y74988096D01*
X79690476Y75107143D01*
X79785714Y75345239D01*
X79785714Y75583334D01*
X79690476Y75821429D01*
X79595238Y75940477D01*
X79404761Y76059524D01*
X79023809Y76178572D01*
X78833333Y76297620D01*
X78738095Y76416667D01*
X78642857Y76654762D01*
X78642857Y76892858D01*
X78738095Y77130953D01*
X78833333Y77250000D01*
X79023809Y77369048D01*
X79500000Y77369048D01*
X79785714Y77250000D01*
X80642857Y74869048D02*
X80642857Y77369048D01*
X81119047Y77369048D01*
X81404761Y77250000D01*
X81595238Y77011905D01*
X81690476Y76773810D01*
X81785714Y76297620D01*
X81785714Y75940477D01*
X81690476Y75464286D01*
X81595238Y75226191D01*
X81404761Y74988096D01*
X81119047Y74869048D01*
X80642857Y74869048D01*
X82452380Y73916667D02*
X82547619Y74035715D01*
X82738095Y74392858D01*
X82833333Y74630953D01*
X82928571Y74988096D01*
X83023809Y75583334D01*
X83023809Y76059524D01*
X82928571Y76654762D01*
X82833333Y77011905D01*
X82738095Y77250000D01*
X82547619Y77607143D01*
X82452380Y77726191D01*
X88166666Y74869048D02*
X87500000Y76059524D01*
X87023809Y74869048D02*
X87023809Y77369048D01*
X87785714Y77369048D01*
X87976190Y77250000D01*
X88071428Y77130953D01*
X88166666Y76892858D01*
X88166666Y76535715D01*
X88071428Y76297620D01*
X87976190Y76178572D01*
X87785714Y76059524D01*
X87023809Y76059524D01*
X89785714Y74988096D02*
X89595238Y74869048D01*
X89214285Y74869048D01*
X89023809Y74988096D01*
X88928571Y75226191D01*
X88928571Y76178572D01*
X89023809Y76416667D01*
X89214285Y76535715D01*
X89595238Y76535715D01*
X89785714Y76416667D01*
X89880952Y76178572D01*
X89880952Y75940477D01*
X88928571Y75702381D01*
X90547619Y76535715D02*
X91023809Y74869048D01*
X91500000Y76535715D01*
X93309523Y74869048D02*
X92166666Y74869048D01*
X92738095Y74869048D02*
X92738095Y77369048D01*
X92547619Y77011905D01*
X92357142Y76773810D01*
X92166666Y76654762D01*
X94166666Y75107143D02*
X94261904Y74988096D01*
X94166666Y74869048D01*
X94071428Y74988096D01*
X94166666Y75107143D01*
X94166666Y74869048D01*
X94928571Y77369048D02*
X96261904Y77369048D01*
X95404761Y74869048D01*
D11*
X45820000Y18650000D02*
X45820000Y14410000D01*
X43080000Y18650000D02*
X43080000Y14410000D01*
X45820000Y18650000D02*
X45115000Y18650000D01*
X43785000Y18650000D02*
X43080000Y18650000D01*
X45820000Y14410000D02*
X45115000Y14410000D01*
X43785000Y14410000D02*
X43080000Y14410000D01*
X3145000Y9330000D02*
X2440000Y9330000D01*
X5180000Y9330000D02*
X4475000Y9330000D01*
X3145000Y13570000D02*
X2440000Y13570000D01*
X5180000Y13570000D02*
X4475000Y13570000D01*
X2440000Y13570000D02*
X2440000Y9330000D01*
X5180000Y13570000D02*
X5180000Y9330000D01*
X33120000Y38970000D02*
X33120000Y34730000D01*
X30380000Y38970000D02*
X30380000Y34730000D01*
X33120000Y38970000D02*
X32415000Y38970000D01*
X31085000Y38970000D02*
X30380000Y38970000D01*
X33120000Y34730000D02*
X32415000Y34730000D01*
X31085000Y34730000D02*
X30380000Y34730000D01*
X118050000Y31810000D02*
X118050000Y29150000D01*
X138430000Y31810000D02*
X118050000Y31810000D01*
X138430000Y29150000D02*
X118050000Y29150000D01*
X138430000Y31810000D02*
X138430000Y29150000D01*
X139700000Y31810000D02*
X141030000Y31810000D01*
X141030000Y31810000D02*
X141030000Y30480000D01*
X117680000Y32180000D02*
X117680000Y380000D01*
X117680000Y380000D02*
X141380000Y380000D01*
X141380000Y380000D02*
X141380000Y32180000D01*
X141380000Y32180000D02*
X117680000Y32180000D01*
X134620000Y39430000D02*
X134620000Y36770000D01*
X134620000Y39430000D02*
X121860000Y39430000D01*
X121860000Y39430000D02*
X121860000Y36770000D01*
X134620000Y36770000D02*
X121860000Y36770000D01*
X137220000Y36770000D02*
X135890000Y36770000D01*
X137220000Y38100000D02*
X137220000Y36770000D01*
X83880000Y30420000D02*
X83880000Y33080000D01*
X81280000Y30420000D02*
X83880000Y30420000D01*
X81280000Y33080000D02*
X83880000Y33080000D01*
X81280000Y30420000D02*
X81280000Y33080000D01*
X80010000Y30420000D02*
X78680000Y30420000D01*
X78680000Y30420000D02*
X78680000Y31750000D01*
X18780000Y24070000D02*
X23840000Y24070000D01*
X23840000Y24070000D02*
X23840000Y74990000D01*
X23840000Y74990000D02*
X11720000Y74990000D01*
X11720000Y74990000D02*
X11720000Y24070000D01*
X11720000Y24070000D02*
X16780000Y24070000D01*
X16780000Y24070000D02*
G75*
G02*
X18780000Y24070000I1000000J0D01*
G01*
X6640000Y24070000D02*
X11700000Y24070000D01*
X6640000Y74990000D02*
X6640000Y24070000D01*
X18760000Y74990000D02*
X6640000Y74990000D01*
X18760000Y24070000D02*
X18760000Y74990000D01*
X13700000Y24070000D02*
X18760000Y24070000D01*
X11700000Y24070000D02*
G75*
G02*
X13700000Y24070000I1000000J0D01*
G01*
X38040000Y57420000D02*
X38040000Y52360000D01*
X38040000Y52360000D02*
X73720000Y52360000D01*
X73720000Y52360000D02*
X73720000Y64480000D01*
X73720000Y64480000D02*
X38040000Y64480000D01*
X38040000Y64480000D02*
X38040000Y59420000D01*
X38040000Y59420000D02*
G75*
G02*
X38040000Y57420000I0J-1000000D01*
G01*
X38040000Y69560000D02*
X38040000Y64500000D01*
X73720000Y69560000D02*
X38040000Y69560000D01*
X73720000Y57440000D02*
X73720000Y69560000D01*
X38040000Y57440000D02*
X73720000Y57440000D01*
X38040000Y62500000D02*
X38040000Y57440000D01*
X38040000Y64500000D02*
G75*
G02*
X38040000Y62500000I0J-1000000D01*
G01*
X34230000Y35830000D02*
X34230000Y34580000D01*
X34230000Y34580000D02*
X64830000Y34580000D01*
X64830000Y34580000D02*
X64830000Y39080000D01*
X64830000Y39080000D02*
X34230000Y39080000D01*
X34230000Y39080000D02*
X34230000Y37830000D01*
X34230000Y37830000D02*
G75*
G02*
X34230000Y35830000I0J-1000000D01*
G01*
X6290000Y17490000D02*
X6290000Y12430000D01*
X41970000Y17490000D02*
X6290000Y17490000D01*
X41970000Y5370000D02*
X41970000Y17490000D01*
X6290000Y5370000D02*
X41970000Y5370000D01*
X6290000Y10430000D02*
X6290000Y5370000D01*
X6290000Y12430000D02*
G75*
G02*
X6290000Y10430000I0J-1000000D01*
G01*
X83760000Y62500000D02*
X83760000Y57440000D01*
X83760000Y57440000D02*
X134680000Y57440000D01*
X134680000Y57440000D02*
X134680000Y69560000D01*
X134680000Y69560000D02*
X83760000Y69560000D01*
X83760000Y69560000D02*
X83760000Y64500000D01*
X83760000Y64500000D02*
G75*
G02*
X83760000Y62500000I0J-1000000D01*
G01*
X83760000Y64480000D02*
X83760000Y59420000D01*
X134680000Y64480000D02*
X83760000Y64480000D01*
X134680000Y52360000D02*
X134680000Y64480000D01*
X83760000Y52360000D02*
X134680000Y52360000D01*
X83760000Y57420000D02*
X83760000Y52360000D01*
X83760000Y59420000D02*
G75*
G02*
X83760000Y57420000I0J-1000000D01*
G01*
X105410000Y11430000D02*
X105410000Y8890000D01*
X105410000Y8890000D02*
X108077000Y8890000D01*
X108077000Y11430000D02*
X108077000Y39497000D01*
X108077000Y6223000D02*
X108077000Y8890000D01*
X92710000Y8890000D02*
X90040000Y8890000D01*
X92710000Y8890000D02*
X92710000Y39497000D01*
X108077000Y39497000D02*
X90040000Y39497000D01*
X105410000Y11430000D02*
X108077000Y11430000D01*
X105410000Y11430000D02*
X105410000Y39497000D01*
X90043000Y39497000D02*
X90043000Y6223000D01*
X90043000Y6223000D02*
X108077000Y6223000D01*
X46930000Y2480000D02*
X46930000Y3810000D01*
X48260000Y2480000D02*
X46930000Y2480000D01*
X49530000Y2480000D02*
X49530000Y5140000D01*
X49530000Y5140000D02*
X54670000Y5140000D01*
X49530000Y2480000D02*
X54670000Y2480000D01*
X54670000Y2480000D02*
X54670000Y5140000D01*
X85150000Y2480000D02*
X85150000Y5140000D01*
X80010000Y2480000D02*
X85150000Y2480000D01*
X80010000Y5140000D02*
X85150000Y5140000D01*
X80010000Y2480000D02*
X80010000Y5140000D01*
X78740000Y2480000D02*
X77410000Y2480000D01*
X77410000Y2480000D02*
X77410000Y3810000D01*
X69910000Y2480000D02*
X69910000Y5140000D01*
X64770000Y2480000D02*
X69910000Y2480000D01*
X64770000Y5140000D02*
X69910000Y5140000D01*
X64770000Y2480000D02*
X64770000Y5140000D01*
X63500000Y2480000D02*
X62170000Y2480000D01*
X62170000Y2480000D02*
X62170000Y3810000D01*
X46930000Y22570000D02*
X46930000Y17510000D01*
X82610000Y22570000D02*
X46930000Y22570000D01*
X82610000Y10450000D02*
X82610000Y22570000D01*
X46930000Y10450000D02*
X82610000Y10450000D01*
X46930000Y15510000D02*
X46930000Y10450000D01*
X46930000Y17510000D02*
G75*
G02*
X46930000Y15510000I0J-1000000D01*
G01*
D10*
X44283333Y19962858D02*
X44235714Y19915239D01*
X44092857Y19867620D01*
X43997619Y19867620D01*
X43854761Y19915239D01*
X43759523Y20010477D01*
X43711904Y20105715D01*
X43664285Y20296191D01*
X43664285Y20439048D01*
X43711904Y20629524D01*
X43759523Y20724762D01*
X43854761Y20820000D01*
X43997619Y20867620D01*
X44092857Y20867620D01*
X44235714Y20820000D01*
X44283333Y20772381D01*
X45235714Y19867620D02*
X44664285Y19867620D01*
X44950000Y19867620D02*
X44950000Y20867620D01*
X44854761Y20724762D01*
X44759523Y20629524D01*
X44664285Y20581905D01*
X3643333Y14882858D02*
X3595714Y14835239D01*
X3452857Y14787620D01*
X3357619Y14787620D01*
X3214761Y14835239D01*
X3119523Y14930477D01*
X3071904Y15025715D01*
X3024285Y15216191D01*
X3024285Y15359048D01*
X3071904Y15549524D01*
X3119523Y15644762D01*
X3214761Y15740000D01*
X3357619Y15787620D01*
X3452857Y15787620D01*
X3595714Y15740000D01*
X3643333Y15692381D01*
X4024285Y15692381D02*
X4071904Y15740000D01*
X4167142Y15787620D01*
X4405238Y15787620D01*
X4500476Y15740000D01*
X4548095Y15692381D01*
X4595714Y15597143D01*
X4595714Y15501905D01*
X4548095Y15359048D01*
X3976666Y14787620D01*
X4595714Y14787620D01*
X31583333Y40282858D02*
X31535714Y40235239D01*
X31392857Y40187620D01*
X31297619Y40187620D01*
X31154761Y40235239D01*
X31059523Y40330477D01*
X31011904Y40425715D01*
X30964285Y40616191D01*
X30964285Y40759048D01*
X31011904Y40949524D01*
X31059523Y41044762D01*
X31154761Y41140000D01*
X31297619Y41187620D01*
X31392857Y41187620D01*
X31535714Y41140000D01*
X31583333Y41092381D01*
X31916666Y41187620D02*
X32535714Y41187620D01*
X32202380Y40806667D01*
X32345238Y40806667D01*
X32440476Y40759048D01*
X32488095Y40711429D01*
X32535714Y40616191D01*
X32535714Y40378096D01*
X32488095Y40282858D01*
X32440476Y40235239D01*
X32345238Y40187620D01*
X32059523Y40187620D01*
X31964285Y40235239D01*
X31916666Y40282858D01*
X116506666Y31027620D02*
X116506666Y30313334D01*
X116459047Y30170477D01*
X116363809Y30075239D01*
X116220952Y30027620D01*
X116125714Y30027620D01*
X117506666Y30027620D02*
X116935238Y30027620D01*
X117220952Y30027620D02*
X117220952Y31027620D01*
X117125714Y30884762D01*
X117030476Y30789524D01*
X116935238Y30741905D01*
X122278095Y34123334D02*
X122754285Y34123334D01*
X122182857Y33837620D02*
X122516190Y34837620D01*
X122849523Y33837620D01*
X123182857Y34361429D02*
X123516190Y34361429D01*
X123659047Y33837620D02*
X123182857Y33837620D01*
X123182857Y34837620D01*
X123659047Y34837620D01*
X124087619Y34218572D02*
X124849523Y34218572D01*
X125325714Y33837620D02*
X125325714Y34504286D01*
X125325714Y34409048D02*
X125373333Y34456667D01*
X125468571Y34504286D01*
X125611428Y34504286D01*
X125706666Y34456667D01*
X125754285Y34361429D01*
X125754285Y33837620D01*
X125754285Y34361429D02*
X125801904Y34456667D01*
X125897142Y34504286D01*
X126040000Y34504286D01*
X126135238Y34456667D01*
X126182857Y34361429D01*
X126182857Y33837620D01*
X126659047Y33837620D02*
X126659047Y34504286D01*
X126659047Y34837620D02*
X126611428Y34790000D01*
X126659047Y34742381D01*
X126706666Y34790000D01*
X126659047Y34837620D01*
X126659047Y34742381D01*
X127563809Y33885239D02*
X127468571Y33837620D01*
X127278095Y33837620D01*
X127182857Y33885239D01*
X127135238Y33932858D01*
X127087619Y34028096D01*
X127087619Y34313810D01*
X127135238Y34409048D01*
X127182857Y34456667D01*
X127278095Y34504286D01*
X127468571Y34504286D01*
X127563809Y34456667D01*
X127992380Y33837620D02*
X127992380Y34504286D01*
X127992380Y34313810D02*
X128040000Y34409048D01*
X128087619Y34456667D01*
X128182857Y34504286D01*
X128278095Y34504286D01*
X128754285Y33837620D02*
X128659047Y33885239D01*
X128611428Y33932858D01*
X128563809Y34028096D01*
X128563809Y34313810D01*
X128611428Y34409048D01*
X128659047Y34456667D01*
X128754285Y34504286D01*
X128897142Y34504286D01*
X128992380Y34456667D01*
X129040000Y34409048D01*
X129087619Y34313810D01*
X129087619Y34028096D01*
X129040000Y33932858D01*
X128992380Y33885239D01*
X128897142Y33837620D01*
X128754285Y33837620D01*
X129468571Y33885239D02*
X129611428Y33837620D01*
X129849523Y33837620D01*
X129944761Y33885239D01*
X129992380Y33932858D01*
X130040000Y34028096D01*
X130040000Y34123334D01*
X129992380Y34218572D01*
X129944761Y34266191D01*
X129849523Y34313810D01*
X129659047Y34361429D01*
X129563809Y34409048D01*
X129516190Y34456667D01*
X129468571Y34551905D01*
X129468571Y34647143D01*
X129516190Y34742381D01*
X129563809Y34790000D01*
X129659047Y34837620D01*
X129897142Y34837620D01*
X130040000Y34790000D01*
X130468571Y33837620D02*
X130468571Y34837620D01*
X130706666Y34837620D01*
X130849523Y34790000D01*
X130944761Y34694762D01*
X130992380Y34599524D01*
X131040000Y34409048D01*
X131040000Y34266191D01*
X130992380Y34075715D01*
X130944761Y33980477D01*
X130849523Y33885239D01*
X130706666Y33837620D01*
X130468571Y33837620D01*
X131468571Y34218572D02*
X132230476Y34218572D01*
X133182857Y33837620D02*
X132706666Y33837620D01*
X132706666Y34837620D01*
X133992380Y33837620D02*
X133516190Y33837620D01*
X133516190Y34837620D01*
X134897142Y33932858D02*
X134849523Y33885239D01*
X134706666Y33837620D01*
X134611428Y33837620D01*
X134468571Y33885239D01*
X134373333Y33980477D01*
X134325714Y34075715D01*
X134278095Y34266191D01*
X134278095Y34409048D01*
X134325714Y34599524D01*
X134373333Y34694762D01*
X134468571Y34790000D01*
X134611428Y34837620D01*
X134706666Y34837620D01*
X134849523Y34790000D01*
X134897142Y34742381D01*
X135325714Y33837620D02*
X135325714Y34837620D01*
X135897142Y33837620D01*
X135897142Y34837620D01*
X136230476Y34837620D02*
X136563809Y33837620D01*
X136897142Y34837620D01*
X138326666Y38647620D02*
X138326666Y37933334D01*
X138279047Y37790477D01*
X138183809Y37695239D01*
X138040952Y37647620D01*
X137945714Y37647620D01*
X138755238Y38552381D02*
X138802857Y38600000D01*
X138898095Y38647620D01*
X139136190Y38647620D01*
X139231428Y38600000D01*
X139279047Y38552381D01*
X139326666Y38457143D01*
X139326666Y38361905D01*
X139279047Y38219048D01*
X138707619Y37647620D01*
X139326666Y37647620D01*
X75557142Y31297620D02*
X75080952Y31297620D01*
X75080952Y32297620D01*
X75842857Y31345239D02*
X75985714Y31297620D01*
X76223809Y31297620D01*
X76319047Y31345239D01*
X76366666Y31392858D01*
X76414285Y31488096D01*
X76414285Y31583334D01*
X76366666Y31678572D01*
X76319047Y31726191D01*
X76223809Y31773810D01*
X76033333Y31821429D01*
X75938095Y31869048D01*
X75890476Y31916667D01*
X75842857Y32011905D01*
X75842857Y32107143D01*
X75890476Y32202381D01*
X75938095Y32250000D01*
X76033333Y32297620D01*
X76271428Y32297620D01*
X76414285Y32250000D01*
X77366666Y31297620D02*
X76795238Y31297620D01*
X77080952Y31297620D02*
X77080952Y32297620D01*
X76985714Y32154762D01*
X76890476Y32059524D01*
X76795238Y32011905D01*
X17018095Y23617620D02*
X17018095Y22808096D01*
X17065714Y22712858D01*
X17113333Y22665239D01*
X17208571Y22617620D01*
X17399047Y22617620D01*
X17494285Y22665239D01*
X17541904Y22712858D01*
X17589523Y22808096D01*
X17589523Y23617620D01*
X18589523Y22617620D02*
X18018095Y22617620D01*
X18303809Y22617620D02*
X18303809Y23617620D01*
X18208571Y23474762D01*
X18113333Y23379524D01*
X18018095Y23331905D01*
X11938095Y23617620D02*
X11938095Y22808096D01*
X11985714Y22712858D01*
X12033333Y22665239D01*
X12128571Y22617620D01*
X12319047Y22617620D01*
X12414285Y22665239D01*
X12461904Y22712858D01*
X12509523Y22808096D01*
X12509523Y23617620D01*
X12938095Y23522381D02*
X12985714Y23570000D01*
X13080952Y23617620D01*
X13319047Y23617620D01*
X13414285Y23570000D01*
X13461904Y23522381D01*
X13509523Y23427143D01*
X13509523Y23331905D01*
X13461904Y23189048D01*
X12890476Y22617620D01*
X13509523Y22617620D01*
X36068095Y58967620D02*
X36068095Y58158096D01*
X36115714Y58062858D01*
X36163333Y58015239D01*
X36258571Y57967620D01*
X36449047Y57967620D01*
X36544285Y58015239D01*
X36591904Y58062858D01*
X36639523Y58158096D01*
X36639523Y58967620D01*
X37020476Y58967620D02*
X37639523Y58967620D01*
X37306190Y58586667D01*
X37449047Y58586667D01*
X37544285Y58539048D01*
X37591904Y58491429D01*
X37639523Y58396191D01*
X37639523Y58158096D01*
X37591904Y58062858D01*
X37544285Y58015239D01*
X37449047Y57967620D01*
X37163333Y57967620D01*
X37068095Y58015239D01*
X37020476Y58062858D01*
X36068095Y64047620D02*
X36068095Y63238096D01*
X36115714Y63142858D01*
X36163333Y63095239D01*
X36258571Y63047620D01*
X36449047Y63047620D01*
X36544285Y63095239D01*
X36591904Y63142858D01*
X36639523Y63238096D01*
X36639523Y64047620D01*
X37544285Y63714286D02*
X37544285Y63047620D01*
X37306190Y64095239D02*
X37068095Y63380953D01*
X37687142Y63380953D01*
X65278095Y38647620D02*
X65278095Y37838096D01*
X65325714Y37742858D01*
X65373333Y37695239D01*
X65468571Y37647620D01*
X65659047Y37647620D01*
X65754285Y37695239D01*
X65801904Y37742858D01*
X65849523Y37838096D01*
X65849523Y38647620D01*
X66801904Y38647620D02*
X66325714Y38647620D01*
X66278095Y38171429D01*
X66325714Y38219048D01*
X66420952Y38266667D01*
X66659047Y38266667D01*
X66754285Y38219048D01*
X66801904Y38171429D01*
X66849523Y38076191D01*
X66849523Y37838096D01*
X66801904Y37742858D01*
X66754285Y37695239D01*
X66659047Y37647620D01*
X66420952Y37647620D01*
X66325714Y37695239D01*
X66278095Y37742858D01*
X42738095Y9547620D02*
X42738095Y8738096D01*
X42785714Y8642858D01*
X42833333Y8595239D01*
X42928571Y8547620D01*
X43119047Y8547620D01*
X43214285Y8595239D01*
X43261904Y8642858D01*
X43309523Y8738096D01*
X43309523Y9547620D01*
X43690476Y9547620D02*
X44357142Y9547620D01*
X43928571Y8547620D01*
X81788095Y64047620D02*
X81788095Y63238096D01*
X81835714Y63142858D01*
X81883333Y63095239D01*
X81978571Y63047620D01*
X82169047Y63047620D01*
X82264285Y63095239D01*
X82311904Y63142858D01*
X82359523Y63238096D01*
X82359523Y64047620D01*
X82883333Y63047620D02*
X83073809Y63047620D01*
X83169047Y63095239D01*
X83216666Y63142858D01*
X83311904Y63285715D01*
X83359523Y63476191D01*
X83359523Y63857143D01*
X83311904Y63952381D01*
X83264285Y64000000D01*
X83169047Y64047620D01*
X82978571Y64047620D01*
X82883333Y64000000D01*
X82835714Y63952381D01*
X82788095Y63857143D01*
X82788095Y63619048D01*
X82835714Y63523810D01*
X82883333Y63476191D01*
X82978571Y63428572D01*
X83169047Y63428572D01*
X83264285Y63476191D01*
X83311904Y63523810D01*
X83359523Y63619048D01*
X81788095Y58967620D02*
X81788095Y58158096D01*
X81835714Y58062858D01*
X81883333Y58015239D01*
X81978571Y57967620D01*
X82169047Y57967620D01*
X82264285Y58015239D01*
X82311904Y58062858D01*
X82359523Y58158096D01*
X82359523Y58967620D01*
X82978571Y58539048D02*
X82883333Y58586667D01*
X82835714Y58634286D01*
X82788095Y58729524D01*
X82788095Y58777143D01*
X82835714Y58872381D01*
X82883333Y58920000D01*
X82978571Y58967620D01*
X83169047Y58967620D01*
X83264285Y58920000D01*
X83311904Y58872381D01*
X83359523Y58777143D01*
X83359523Y58729524D01*
X83311904Y58634286D01*
X83264285Y58586667D01*
X83169047Y58539048D01*
X82978571Y58539048D01*
X82883333Y58491429D01*
X82835714Y58443810D01*
X82788095Y58348572D01*
X82788095Y58158096D01*
X82835714Y58062858D01*
X82883333Y58015239D01*
X82978571Y57967620D01*
X83169047Y57967620D01*
X83264285Y58015239D01*
X83311904Y58062858D01*
X83359523Y58158096D01*
X83359523Y58348572D01*
X83311904Y58443810D01*
X83264285Y58491429D01*
X83169047Y58539048D01*
X97821904Y5627620D02*
X97821904Y4818096D01*
X97869523Y4722858D01*
X97917142Y4675239D01*
X98012380Y4627620D01*
X98202857Y4627620D01*
X98298095Y4675239D01*
X98345714Y4722858D01*
X98393333Y4818096D01*
X98393333Y5627620D01*
X99393333Y4627620D02*
X98821904Y4627620D01*
X99107619Y4627620D02*
X99107619Y5627620D01*
X99012380Y5484762D01*
X98917142Y5389524D01*
X98821904Y5341905D01*
X100012380Y5627620D02*
X100107619Y5627620D01*
X100202857Y5580000D01*
X100250476Y5532381D01*
X100298095Y5437143D01*
X100345714Y5246667D01*
X100345714Y5008572D01*
X100298095Y4818096D01*
X100250476Y4722858D01*
X100202857Y4675239D01*
X100107619Y4627620D01*
X100012380Y4627620D01*
X99917142Y4675239D01*
X99869523Y4722858D01*
X99821904Y4818096D01*
X99774285Y5008572D01*
X99774285Y5246667D01*
X99821904Y5437143D01*
X99869523Y5532381D01*
X99917142Y5580000D01*
X100012380Y5627620D01*
X45168095Y3405239D02*
X45310952Y3357620D01*
X45549047Y3357620D01*
X45644285Y3405239D01*
X45691904Y3452858D01*
X45739523Y3548096D01*
X45739523Y3643334D01*
X45691904Y3738572D01*
X45644285Y3786191D01*
X45549047Y3833810D01*
X45358571Y3881429D01*
X45263333Y3929048D01*
X45215714Y3976667D01*
X45168095Y4071905D01*
X45168095Y4167143D01*
X45215714Y4262381D01*
X45263333Y4310000D01*
X45358571Y4357620D01*
X45596666Y4357620D01*
X45739523Y4310000D01*
X46691904Y3357620D02*
X46120476Y3357620D01*
X46406190Y3357620D02*
X46406190Y4357620D01*
X46310952Y4214762D01*
X46215714Y4119524D01*
X46120476Y4071905D01*
X75648095Y3405239D02*
X75790952Y3357620D01*
X76029047Y3357620D01*
X76124285Y3405239D01*
X76171904Y3452858D01*
X76219523Y3548096D01*
X76219523Y3643334D01*
X76171904Y3738572D01*
X76124285Y3786191D01*
X76029047Y3833810D01*
X75838571Y3881429D01*
X75743333Y3929048D01*
X75695714Y3976667D01*
X75648095Y4071905D01*
X75648095Y4167143D01*
X75695714Y4262381D01*
X75743333Y4310000D01*
X75838571Y4357620D01*
X76076666Y4357620D01*
X76219523Y4310000D01*
X76552857Y4357620D02*
X77171904Y4357620D01*
X76838571Y3976667D01*
X76981428Y3976667D01*
X77076666Y3929048D01*
X77124285Y3881429D01*
X77171904Y3786191D01*
X77171904Y3548096D01*
X77124285Y3452858D01*
X77076666Y3405239D01*
X76981428Y3357620D01*
X76695714Y3357620D01*
X76600476Y3405239D01*
X76552857Y3452858D01*
X60408095Y3405239D02*
X60550952Y3357620D01*
X60789047Y3357620D01*
X60884285Y3405239D01*
X60931904Y3452858D01*
X60979523Y3548096D01*
X60979523Y3643334D01*
X60931904Y3738572D01*
X60884285Y3786191D01*
X60789047Y3833810D01*
X60598571Y3881429D01*
X60503333Y3929048D01*
X60455714Y3976667D01*
X60408095Y4071905D01*
X60408095Y4167143D01*
X60455714Y4262381D01*
X60503333Y4310000D01*
X60598571Y4357620D01*
X60836666Y4357620D01*
X60979523Y4310000D01*
X61360476Y4262381D02*
X61408095Y4310000D01*
X61503333Y4357620D01*
X61741428Y4357620D01*
X61836666Y4310000D01*
X61884285Y4262381D01*
X61931904Y4167143D01*
X61931904Y4071905D01*
X61884285Y3929048D01*
X61312857Y3357620D01*
X61931904Y3357620D01*
X44738095Y13047620D02*
X44738095Y12238096D01*
X44785714Y12142858D01*
X44833333Y12095239D01*
X44928571Y12047620D01*
X45119047Y12047620D01*
X45214285Y12095239D01*
X45261904Y12142858D01*
X45309523Y12238096D01*
X45309523Y13047620D01*
X46214285Y13047620D02*
X46023809Y13047620D01*
X45928571Y13000000D01*
X45880952Y12952381D01*
X45785714Y12809524D01*
X45738095Y12619048D01*
X45738095Y12238096D01*
X45785714Y12142858D01*
X45833333Y12095239D01*
X45928571Y12047620D01*
X46119047Y12047620D01*
X46214285Y12095239D01*
X46261904Y12142858D01*
X46309523Y12238096D01*
X46309523Y12476191D01*
X46261904Y12571429D01*
X46214285Y12619048D01*
X46119047Y12666667D01*
X45928571Y12666667D01*
X45833333Y12619048D01*
X45785714Y12571429D01*
X45738095Y12476191D01*
M02*
