M48
; DRILL file {KiCad (5.1.9)-1} date 10/24/24 21:54:40
; FORMAT={-:-/ absolute / metric / decimal}
; #@! TF.CreationDate,2024-10-24T21:54:40+09:00
; #@! TF.GenerationSoftware,Kicad,Pcbnew,(5.1.9)-1
FMAT,2
METRIC
T1C0.300
T2C0.800
T3C1.000
%
G90
G05
T1
X16.179Y26.528
X21.798Y16.591
X34.419Y34.519
X42.572Y11.505
X48.74Y26.187
X59.69Y40.342
X59.69Y31.462
X65.252Y30.599
X69.793Y2.914
X72.477Y25.63
X73.144Y28.066
T2
X3.81Y12.7
X3.81Y10.2
X5.08Y73.66
X5.08Y71.12
X5.08Y68.58
X5.08Y66.04
X5.08Y63.5
X5.08Y60.96
X5.08Y58.42
X5.08Y55.88
X5.08Y53.34
X5.08Y50.8
X5.08Y48.26
X5.08Y45.72
X5.08Y43.18
X5.08Y40.64
X5.08Y38.1
X5.08Y35.56
X5.08Y33.02
X5.08Y30.48
X5.08Y27.94
X5.08Y25.4
X7.62Y19.05
X7.62Y3.81
X10.16Y73.66
X10.16Y71.12
X10.16Y68.58
X10.16Y66.04
X10.16Y63.5
X10.16Y60.96
X10.16Y58.42
X10.16Y55.88
X10.16Y53.34
X10.16Y50.8
X10.16Y48.26
X10.16Y45.72
X10.16Y43.18
X10.16Y40.64
X10.16Y38.1
X10.16Y35.56
X10.16Y33.02
X10.16Y30.48
X10.16Y27.94
X10.16Y25.4
X10.16Y19.05
X10.16Y3.81
X12.7Y19.05
X12.7Y3.81
X15.24Y19.05
X15.24Y3.81
X17.78Y19.05
X17.78Y3.81
X20.32Y73.66
X20.32Y71.12
X20.32Y68.58
X20.32Y66.04
X20.32Y63.5
X20.32Y60.96
X20.32Y58.42
X20.32Y55.88
X20.32Y53.34
X20.32Y50.8
X20.32Y48.26
X20.32Y45.72
X20.32Y43.18
X20.32Y40.64
X20.32Y38.1
X20.32Y35.56
X20.32Y33.02
X20.32Y30.48
X20.32Y27.94
X20.32Y25.4
X20.32Y19.05
X20.32Y3.81
X22.86Y19.05
X22.86Y3.81
X25.4Y73.66
X25.4Y71.12
X25.4Y68.58
X25.4Y66.04
X25.4Y63.5
X25.4Y60.96
X25.4Y58.42
X25.4Y55.88
X25.4Y53.34
X25.4Y50.8
X25.4Y48.26
X25.4Y45.72
X25.4Y43.18
X25.4Y40.64
X25.4Y38.1
X25.4Y35.56
X25.4Y33.02
X25.4Y30.48
X25.4Y27.94
X25.4Y25.4
X25.4Y19.05
X25.4Y3.81
X27.94Y19.05
X27.94Y3.81
X30.48Y19.05
X30.48Y3.81
X31.75Y38.1
X31.75Y35.6
X33.02Y19.05
X33.02Y3.81
X35.56Y40.64
X35.56Y33.02
X35.56Y19.05
X35.56Y3.81
X38.1Y40.64
X38.1Y33.02
X38.1Y19.05
X38.1Y3.81
X39.37Y71.12
X39.37Y66.04
X39.37Y55.88
X39.37Y50.8
X40.64Y40.64
X40.64Y33.02
X40.64Y19.05
X40.64Y3.81
X41.91Y71.12
X41.91Y66.04
X41.91Y55.88
X41.91Y50.8
X43.18Y40.64
X43.18Y33.02
X44.45Y71.12
X44.45Y66.04
X44.45Y55.88
X44.45Y50.8
X44.45Y17.78
X44.45Y15.28
X45.72Y40.64
X45.72Y33.02
X46.99Y71.12
X46.99Y66.04
X46.99Y55.88
X46.99Y50.8
X48.26Y40.64
X48.26Y33.02
X48.26Y24.13
X48.26Y8.89
X49.53Y71.12
X49.53Y66.04
X49.53Y55.88
X49.53Y50.8
X50.8Y40.64
X50.8Y33.02
X50.8Y24.13
X50.8Y8.89
X52.07Y71.12
X52.07Y66.04
X52.07Y55.88
X52.07Y50.8
X53.34Y40.64
X53.34Y33.02
X53.34Y24.13
X53.34Y8.89
X54.61Y71.12
X54.61Y66.04
X54.61Y55.88
X54.61Y50.8
X55.88Y40.64
X55.88Y33.02
X55.88Y24.13
X55.88Y8.89
X57.15Y71.12
X57.15Y66.04
X57.15Y55.88
X57.15Y50.8
X58.42Y40.64
X58.42Y33.02
X58.42Y24.13
X58.42Y8.89
X59.69Y71.12
X59.69Y66.04
X59.69Y55.88
X59.69Y50.8
X60.96Y40.64
X60.96Y33.02
X60.96Y24.13
X60.96Y8.89
X62.23Y71.12
X62.23Y66.04
X62.23Y55.88
X62.23Y50.8
X63.5Y40.64
X63.5Y33.02
X63.5Y24.13
X63.5Y8.89
X64.77Y71.12
X64.77Y66.04
X64.77Y55.88
X64.77Y50.8
X66.04Y24.13
X66.04Y8.89
X67.31Y71.12
X67.31Y66.04
X67.31Y55.88
X67.31Y50.8
X68.58Y24.13
X68.58Y8.89
X69.85Y71.12
X69.85Y66.04
X69.85Y55.88
X69.85Y50.8
X71.12Y24.13
X71.12Y8.89
X72.39Y71.12
X72.39Y66.04
X72.39Y55.88
X72.39Y50.8
X73.66Y24.13
X73.66Y8.89
X76.2Y24.13
X76.2Y8.89
X78.74Y24.13
X78.74Y8.89
X81.28Y24.13
X81.28Y8.89
X85.09Y71.12
X85.09Y66.04
X85.09Y55.88
X85.09Y50.8
X87.63Y71.12
X87.63Y66.04
X87.63Y55.88
X87.63Y50.8
X90.17Y71.12
X90.17Y66.04
X90.17Y55.88
X90.17Y50.8
X91.44Y38.1
X91.44Y35.56
X91.44Y33.02
X91.44Y30.48
X91.44Y27.94
X91.44Y25.4
X91.44Y22.86
X91.44Y20.32
X91.44Y17.78
X91.44Y15.24
X91.44Y12.7
X91.44Y10.16
X92.71Y71.12
X92.71Y66.04
X92.71Y55.88
X92.71Y50.8
X93.98Y31.75
X93.98Y29.21
X93.98Y21.59
X93.98Y19.05
X95.25Y71.12
X95.25Y66.04
X95.25Y55.88
X95.25Y50.8
X97.79Y71.12
X97.79Y66.04
X97.79Y55.88
X97.79Y50.8
X100.33Y71.12
X100.33Y66.04
X100.33Y55.88
X100.33Y50.8
X102.87Y71.12
X102.87Y66.04
X102.87Y55.88
X102.87Y50.8
X105.41Y71.12
X105.41Y66.04
X105.41Y55.88
X105.41Y50.8
X106.68Y38.1
X106.68Y35.56
X106.68Y33.02
X106.68Y30.48
X106.68Y27.94
X106.68Y25.4
X106.68Y22.86
X106.68Y20.32
X106.68Y17.78
X106.68Y15.24
X106.68Y12.7
X106.68Y10.16
X107.95Y71.12
X107.95Y66.04
X107.95Y55.88
X107.95Y50.8
X110.49Y71.12
X110.49Y66.04
X110.49Y55.88
X110.49Y50.8
X113.03Y71.12
X113.03Y66.04
X113.03Y55.88
X113.03Y50.8
X115.57Y71.12
X115.57Y66.04
X115.57Y55.88
X115.57Y50.8
X118.11Y71.12
X118.11Y66.04
X118.11Y55.88
X118.11Y50.8
X120.65Y71.12
X120.65Y66.04
X120.65Y55.88
X120.65Y50.8
X123.19Y71.12
X123.19Y66.04
X123.19Y55.88
X123.19Y50.8
X125.73Y71.12
X125.73Y66.04
X125.73Y55.88
X125.73Y50.8
X128.27Y71.12
X128.27Y66.04
X128.27Y55.88
X128.27Y50.8
X130.81Y71.12
X130.81Y66.04
X130.81Y55.88
X130.81Y50.8
X133.35Y71.12
X133.35Y66.04
X133.35Y55.88
X133.35Y50.8
T3
X48.26Y3.81
X50.8Y3.81
X53.34Y3.81
X63.5Y3.81
X66.04Y3.81
X68.58Y3.81
X78.74Y3.81
X80.01Y31.75
X81.28Y3.81
X82.55Y31.75
X83.82Y3.81
X119.38Y30.48
X119.38Y5.08
X119.38Y2.54
X121.92Y30.48
X123.19Y38.1
X124.46Y30.48
X125.73Y38.1
X127.0Y30.48
X128.27Y38.1
X129.54Y30.48
X130.81Y38.1
X132.08Y30.48
X133.35Y38.1
X134.62Y30.48
X135.89Y38.1
X137.16Y30.48
X139.7Y30.48
X139.7Y5.08
X139.7Y2.54
T0
M30
